G04 (created by PCBNEW (2013-07-07 BZR 4022)-stable) date 30.7.2014 9:50:12*
%MOIN*%
G04 Gerber Fmt 3.4, Leading zero omitted, Abs format*
%FSLAX34Y34*%
G01*
G70*
G90*
G04 APERTURE LIST*
%ADD10C,0.00590551*%
%ADD11C,0.011811*%
%ADD12R,0.0394X0.0315*%
%ADD13R,0.05X0.025*%
%ADD14R,0.035X0.055*%
%ADD15R,0.055X0.035*%
%ADD16R,0.06X0.06*%
%ADD17C,0.06*%
%ADD18C,0.056*%
%ADD19R,0.065X0.065*%
%ADD20C,0.065*%
%ADD21R,0.063X0.0866*%
%ADD22R,0.0866X0.063*%
%ADD23R,0.0276X0.063*%
%ADD24R,0.0276X0.0827*%
%ADD25R,0.0787X0.1083*%
%ADD26C,0.15*%
%ADD27R,0.15X0.15*%
%ADD28C,0.066*%
%ADD29C,0.0393701*%
%ADD30C,0.035*%
%ADD31C,0.015*%
%ADD32C,0.03*%
%ADD33C,0.02*%
%ADD34C,0.01*%
G04 APERTURE END LIST*
G54D10*
G54D11*
X35346Y-20989D02*
X35346Y-20398D01*
X35093Y-20454D02*
X35065Y-20426D01*
X35008Y-20398D01*
X34868Y-20398D01*
X34812Y-20426D01*
X34784Y-20454D01*
X34755Y-20510D01*
X34755Y-20567D01*
X34784Y-20651D01*
X35121Y-20989D01*
X34755Y-20989D01*
X34165Y-20932D02*
X34193Y-20960D01*
X34277Y-20989D01*
X34334Y-20989D01*
X34418Y-20960D01*
X34474Y-20904D01*
X34502Y-20848D01*
X34530Y-20735D01*
X34530Y-20651D01*
X34502Y-20539D01*
X34474Y-20482D01*
X34418Y-20426D01*
X34334Y-20398D01*
X34277Y-20398D01*
X34193Y-20426D01*
X34165Y-20454D01*
X33659Y-20595D02*
X33659Y-20989D01*
X33799Y-20370D02*
X33940Y-20792D01*
X33574Y-20792D01*
X33265Y-20651D02*
X33321Y-20623D01*
X33349Y-20595D01*
X33377Y-20539D01*
X33377Y-20510D01*
X33349Y-20454D01*
X33321Y-20426D01*
X33265Y-20398D01*
X33152Y-20398D01*
X33096Y-20426D01*
X33068Y-20454D01*
X33040Y-20510D01*
X33040Y-20539D01*
X33068Y-20595D01*
X33096Y-20623D01*
X33152Y-20651D01*
X33265Y-20651D01*
X33321Y-20679D01*
X33349Y-20707D01*
X33377Y-20764D01*
X33377Y-20876D01*
X33349Y-20932D01*
X33321Y-20960D01*
X33265Y-20989D01*
X33152Y-20989D01*
X33096Y-20960D01*
X33068Y-20932D01*
X33040Y-20876D01*
X33040Y-20764D01*
X33068Y-20707D01*
X33096Y-20679D01*
X33152Y-20651D01*
X32506Y-20398D02*
X32787Y-20398D01*
X32815Y-20679D01*
X32787Y-20651D01*
X32731Y-20623D01*
X32590Y-20623D01*
X32534Y-20651D01*
X32506Y-20679D01*
X32478Y-20735D01*
X32478Y-20876D01*
X32506Y-20932D01*
X32534Y-20960D01*
X32590Y-20989D01*
X32731Y-20989D01*
X32787Y-20960D01*
X32815Y-20932D01*
X31578Y-20679D02*
X31493Y-20707D01*
X31465Y-20735D01*
X31437Y-20792D01*
X31437Y-20876D01*
X31465Y-20932D01*
X31493Y-20960D01*
X31550Y-20989D01*
X31775Y-20989D01*
X31775Y-20398D01*
X31578Y-20398D01*
X31521Y-20426D01*
X31493Y-20454D01*
X31465Y-20510D01*
X31465Y-20567D01*
X31493Y-20623D01*
X31521Y-20651D01*
X31578Y-20679D01*
X31775Y-20679D01*
X31071Y-20398D02*
X30959Y-20398D01*
X30903Y-20426D01*
X30847Y-20482D01*
X30818Y-20595D01*
X30818Y-20792D01*
X30847Y-20904D01*
X30903Y-20960D01*
X30959Y-20989D01*
X31071Y-20989D01*
X31128Y-20960D01*
X31184Y-20904D01*
X31212Y-20792D01*
X31212Y-20595D01*
X31184Y-20482D01*
X31128Y-20426D01*
X31071Y-20398D01*
X30650Y-20398D02*
X30312Y-20398D01*
X30481Y-20989D02*
X30481Y-20398D01*
X30200Y-20398D02*
X29862Y-20398D01*
X30031Y-20989D02*
X30031Y-20398D01*
X29553Y-20398D02*
X29440Y-20398D01*
X29384Y-20426D01*
X29328Y-20482D01*
X29300Y-20595D01*
X29300Y-20792D01*
X29328Y-20904D01*
X29384Y-20960D01*
X29440Y-20989D01*
X29553Y-20989D01*
X29609Y-20960D01*
X29665Y-20904D01*
X29694Y-20792D01*
X29694Y-20595D01*
X29665Y-20482D01*
X29609Y-20426D01*
X29553Y-20398D01*
X29047Y-20989D02*
X29047Y-20398D01*
X28850Y-20820D01*
X28653Y-20398D01*
X28653Y-20989D01*
G54D10*
G36*
X20670Y-17408D02*
X20545Y-17283D01*
X21102Y-16726D01*
X21227Y-16852D01*
X20670Y-17408D01*
X20670Y-17408D01*
G37*
G36*
X20893Y-17631D02*
X20768Y-17506D01*
X21324Y-16949D01*
X21450Y-17074D01*
X20893Y-17631D01*
X20893Y-17631D01*
G37*
G36*
X21116Y-17854D02*
X20991Y-17728D01*
X21547Y-17172D01*
X21672Y-17297D01*
X21116Y-17854D01*
X21116Y-17854D01*
G37*
G36*
X21339Y-18076D02*
X21213Y-17951D01*
X21770Y-17395D01*
X21895Y-17520D01*
X21339Y-18076D01*
X21339Y-18076D01*
G37*
G36*
X21561Y-18299D02*
X21436Y-18174D01*
X21993Y-17617D01*
X22118Y-17743D01*
X21561Y-18299D01*
X21561Y-18299D01*
G37*
G36*
X21784Y-18522D02*
X21659Y-18397D01*
X22215Y-17840D01*
X22340Y-17965D01*
X21784Y-18522D01*
X21784Y-18522D01*
G37*
G36*
X22007Y-18745D02*
X21882Y-18619D01*
X22438Y-18063D01*
X22563Y-18188D01*
X22007Y-18745D01*
X22007Y-18745D01*
G37*
G36*
X22229Y-18967D02*
X22104Y-18842D01*
X22661Y-18286D01*
X22786Y-18411D01*
X22229Y-18967D01*
X22229Y-18967D01*
G37*
G36*
X24891Y-16303D02*
X24766Y-16178D01*
X25322Y-15621D01*
X25448Y-15746D01*
X24891Y-16303D01*
X24891Y-16303D01*
G37*
G36*
X23328Y-14740D02*
X23203Y-14615D01*
X23760Y-14059D01*
X23885Y-14184D01*
X23328Y-14740D01*
X23328Y-14740D01*
G37*
G36*
X23555Y-14966D02*
X23429Y-14841D01*
X23986Y-14285D01*
X24111Y-14410D01*
X23555Y-14966D01*
X23555Y-14966D01*
G37*
G36*
X23781Y-15193D02*
X23656Y-15068D01*
X24212Y-14511D01*
X24337Y-14636D01*
X23781Y-15193D01*
X23781Y-15193D01*
G37*
G36*
X24000Y-15412D02*
X23875Y-15287D01*
X24431Y-14730D01*
X24557Y-14855D01*
X24000Y-15412D01*
X24000Y-15412D01*
G37*
G36*
X24226Y-15638D02*
X24101Y-15513D01*
X24658Y-14957D01*
X24783Y-15082D01*
X24226Y-15638D01*
X24226Y-15638D01*
G37*
G36*
X24446Y-15857D02*
X24320Y-15732D01*
X24877Y-15176D01*
X25002Y-15301D01*
X24446Y-15857D01*
X24446Y-15857D01*
G37*
G36*
X24672Y-16084D02*
X24547Y-15959D01*
X25103Y-15402D01*
X25228Y-15527D01*
X24672Y-16084D01*
X24672Y-16084D01*
G37*
G36*
X23772Y-18970D02*
X23216Y-18414D01*
X23341Y-18288D01*
X23898Y-18845D01*
X23772Y-18970D01*
X23772Y-18970D01*
G37*
G36*
X23994Y-18748D02*
X23438Y-18192D01*
X23563Y-18066D01*
X24120Y-18623D01*
X23994Y-18748D01*
X23994Y-18748D01*
G37*
G36*
X24218Y-18525D02*
X23661Y-17968D01*
X23787Y-17843D01*
X24343Y-18399D01*
X24218Y-18525D01*
X24218Y-18525D01*
G37*
G36*
X24440Y-18303D02*
X23883Y-17746D01*
X24009Y-17621D01*
X24565Y-18177D01*
X24440Y-18303D01*
X24440Y-18303D01*
G37*
G36*
X24663Y-18079D02*
X24107Y-17523D01*
X24232Y-17398D01*
X24788Y-17954D01*
X24663Y-18079D01*
X24663Y-18079D01*
G37*
G36*
X24885Y-17857D02*
X24329Y-17301D01*
X24454Y-17175D01*
X25011Y-17732D01*
X24885Y-17857D01*
X24885Y-17857D01*
G37*
G36*
X25109Y-17634D02*
X24552Y-17077D01*
X24677Y-16952D01*
X25234Y-17509D01*
X25109Y-17634D01*
X25109Y-17634D01*
G37*
G36*
X25331Y-17412D02*
X24774Y-16855D01*
X24899Y-16730D01*
X25456Y-17287D01*
X25331Y-17412D01*
X25331Y-17412D01*
G37*
G36*
X21101Y-16296D02*
X20544Y-15739D01*
X20670Y-15614D01*
X21226Y-16171D01*
X21101Y-16296D01*
X21101Y-16296D01*
G37*
G36*
X21320Y-16077D02*
X20764Y-15520D01*
X20889Y-15395D01*
X21445Y-15951D01*
X21320Y-16077D01*
X21320Y-16077D01*
G37*
G36*
X21546Y-15850D02*
X20990Y-15294D01*
X21115Y-15169D01*
X21672Y-15725D01*
X21546Y-15850D01*
X21546Y-15850D01*
G37*
G36*
X21766Y-15631D02*
X21209Y-15075D01*
X21334Y-14950D01*
X21891Y-15506D01*
X21766Y-15631D01*
X21766Y-15631D01*
G37*
G36*
X21985Y-15412D02*
X21428Y-14855D01*
X21553Y-14730D01*
X22110Y-15287D01*
X21985Y-15412D01*
X21985Y-15412D01*
G37*
G36*
X22211Y-15186D02*
X21655Y-14629D01*
X21780Y-14504D01*
X22336Y-15061D01*
X22211Y-15186D01*
X22211Y-15186D01*
G37*
G36*
X22437Y-14959D02*
X21881Y-14403D01*
X22006Y-14278D01*
X22563Y-14834D01*
X22437Y-14959D01*
X22437Y-14959D01*
G37*
G36*
X22664Y-14733D02*
X22107Y-14177D01*
X22232Y-14051D01*
X22789Y-14608D01*
X22664Y-14733D01*
X22664Y-14733D01*
G37*
G54D12*
X16567Y-13500D03*
X17433Y-13875D03*
X17433Y-13125D03*
X16567Y-17000D03*
X17433Y-17375D03*
X17433Y-16625D03*
G54D13*
X26900Y-19250D03*
X26900Y-18750D03*
X26900Y-18250D03*
X26900Y-17750D03*
X29100Y-17750D03*
X29100Y-18250D03*
X29100Y-18750D03*
X29100Y-19250D03*
G54D14*
X16625Y-18000D03*
X17375Y-18000D03*
G54D15*
X23000Y-11625D03*
X23000Y-12375D03*
X30250Y-18875D03*
X30250Y-18125D03*
G54D14*
X20375Y-19000D03*
X21125Y-19000D03*
X24875Y-13250D03*
X25625Y-13250D03*
X19375Y-16500D03*
X18625Y-16500D03*
X19375Y-17500D03*
X18625Y-17500D03*
X24875Y-14250D03*
X25625Y-14250D03*
G54D15*
X26000Y-11625D03*
X26000Y-12375D03*
G54D14*
X16625Y-14500D03*
X17375Y-14500D03*
G54D16*
X20000Y-13000D03*
G54D17*
X19000Y-13000D03*
X20000Y-12000D03*
X19000Y-12000D03*
X20000Y-11000D03*
X19000Y-11000D03*
G54D18*
X19500Y-16000D03*
X19500Y-18000D03*
G54D19*
X26500Y-11500D03*
G54D20*
X26500Y-12500D03*
G54D19*
X22500Y-11500D03*
G54D20*
X22500Y-12500D03*
G54D15*
X30250Y-13875D03*
X30250Y-14625D03*
X30250Y-16625D03*
X30250Y-15875D03*
G54D14*
X17375Y-19000D03*
X16625Y-19000D03*
X17375Y-15500D03*
X16625Y-15500D03*
G54D15*
X17500Y-10875D03*
X17500Y-11625D03*
X16000Y-11625D03*
X16000Y-10875D03*
G54D21*
X27752Y-16250D03*
X29248Y-16250D03*
X27752Y-14250D03*
X29248Y-14250D03*
G54D22*
X27750Y-12248D03*
X27750Y-10752D03*
X29750Y-12248D03*
X29750Y-10752D03*
G54D23*
X23909Y-10752D03*
G54D24*
X24500Y-10850D03*
G54D23*
X25091Y-10752D03*
G54D25*
X24500Y-11795D03*
G54D26*
X13500Y-14000D03*
X13500Y-16000D03*
G54D27*
X13500Y-12000D03*
G54D26*
X13500Y-18000D03*
X33500Y-14000D03*
X33500Y-16000D03*
G54D27*
X33500Y-12000D03*
G54D26*
X33500Y-18000D03*
G54D14*
X26625Y-16500D03*
X25875Y-16500D03*
G54D28*
X26500Y-15500D03*
X26500Y-14500D03*
G54D29*
X34750Y-19250D03*
X30250Y-17500D03*
X32250Y-14000D03*
X34750Y-10750D03*
X21000Y-10750D03*
X16750Y-12750D03*
X16750Y-16250D03*
X18750Y-15500D03*
X18750Y-18500D03*
X14500Y-17000D03*
X14500Y-14750D03*
X12250Y-10750D03*
X12250Y-19250D03*
X15000Y-10750D03*
G54D30*
X23000Y-17300D03*
X21300Y-14400D03*
X24200Y-16800D03*
X20900Y-14800D03*
X23500Y-17100D03*
X20400Y-15000D03*
X17500Y-12200D03*
X31000Y-19000D03*
X19750Y-19000D03*
X16000Y-18000D03*
X16000Y-14500D03*
G54D31*
X12000Y-10000D02*
X11500Y-10000D01*
X11500Y-10000D02*
X11500Y-10500D01*
X35500Y-10500D02*
X35500Y-10000D01*
X35500Y-10000D02*
X35000Y-10000D01*
X35000Y-20000D02*
X35500Y-20000D01*
X35500Y-20000D02*
X35500Y-19500D01*
X11500Y-19500D02*
X11500Y-20000D01*
X11500Y-20000D02*
X12500Y-20000D01*
G54D32*
X30250Y-15875D02*
X31375Y-15875D01*
X31375Y-15875D02*
X33500Y-18000D01*
X30250Y-14625D02*
X32125Y-14625D01*
X32125Y-14625D02*
X33500Y-16000D01*
G54D31*
X22000Y-18181D02*
X22018Y-18181D01*
X22018Y-18181D02*
X22600Y-17600D01*
X22600Y-17600D02*
X22600Y-17140D01*
X22600Y-17140D02*
X24442Y-15297D01*
X25625Y-14250D02*
X25625Y-13250D01*
X26500Y-14500D02*
X25875Y-14500D01*
X25875Y-14500D02*
X25625Y-14250D01*
X25625Y-14250D02*
X25625Y-14475D01*
X24940Y-14800D02*
X24442Y-15297D01*
X25300Y-14800D02*
X24940Y-14800D01*
X25625Y-14475D02*
X25300Y-14800D01*
X21125Y-19000D02*
X21181Y-19000D01*
X21181Y-19000D02*
X22000Y-18181D01*
X21125Y-19000D02*
X21125Y-18165D01*
X21125Y-18165D02*
X21554Y-17736D01*
X25107Y-15962D02*
X25337Y-15962D01*
X25337Y-15962D02*
X25875Y-16500D01*
X24875Y-14250D02*
X24875Y-14412D01*
X24875Y-14412D02*
X24216Y-15071D01*
G54D32*
X13500Y-14000D02*
X13750Y-14000D01*
X16000Y-11750D02*
X16000Y-11625D01*
X13750Y-14000D02*
X16000Y-11750D01*
X17500Y-10875D02*
X17125Y-10875D01*
X16375Y-11625D02*
X16000Y-11625D01*
X17125Y-10875D02*
X16375Y-11625D01*
G54D31*
X26900Y-18250D02*
X26250Y-18250D01*
X26250Y-18250D02*
X26250Y-18750D01*
X26900Y-18750D02*
X26250Y-18750D01*
X26250Y-18750D02*
X25650Y-18750D01*
X25650Y-18750D02*
X25200Y-19200D01*
X25200Y-19200D02*
X24127Y-19200D01*
X24127Y-19200D02*
X23557Y-18629D01*
X26900Y-18750D02*
X26150Y-18750D01*
X26625Y-16500D02*
X26625Y-15625D01*
X26625Y-15625D02*
X26500Y-15500D01*
G54D32*
X30250Y-16625D02*
X29623Y-16625D01*
X29623Y-16625D02*
X29248Y-16250D01*
G54D31*
X29100Y-18250D02*
X28750Y-18250D01*
X29000Y-16498D02*
X29248Y-16250D01*
X29000Y-17000D02*
X29000Y-16498D01*
X28500Y-17500D02*
X29000Y-17000D01*
X28500Y-18000D02*
X28500Y-17500D01*
X28750Y-18250D02*
X28500Y-18000D01*
X26900Y-17750D02*
X26150Y-17750D01*
X26150Y-17750D02*
X25000Y-18900D01*
X25000Y-18900D02*
X24271Y-18900D01*
X24271Y-18900D02*
X23779Y-18407D01*
X26900Y-17750D02*
X26650Y-17750D01*
G54D32*
X30250Y-13875D02*
X29623Y-13875D01*
X29623Y-13875D02*
X29248Y-14250D01*
G54D31*
X29248Y-14250D02*
X29248Y-14352D01*
X28750Y-18750D02*
X28250Y-18250D01*
X28750Y-18750D02*
X29100Y-18750D01*
X28100Y-18100D02*
X28250Y-18250D01*
X28100Y-17400D02*
X28100Y-18100D01*
X28500Y-17000D02*
X28100Y-17400D01*
X28500Y-15100D02*
X28500Y-17000D01*
X29248Y-14352D02*
X28500Y-15100D01*
X20000Y-12000D02*
X20600Y-12000D01*
X23444Y-14500D02*
X23544Y-14399D01*
X23100Y-14500D02*
X23444Y-14500D01*
X20600Y-12000D02*
X23100Y-14500D01*
X19000Y-12000D02*
X18400Y-12600D01*
X21303Y-13700D02*
X22222Y-14619D01*
X18800Y-13700D02*
X21303Y-13700D01*
X18400Y-13300D02*
X18800Y-13700D01*
X18400Y-12600D02*
X18400Y-13300D01*
X20000Y-13000D02*
X21055Y-13000D01*
X21055Y-13000D02*
X22448Y-14392D01*
X23762Y-17500D02*
X23200Y-17500D01*
X24224Y-17962D02*
X23762Y-17500D01*
X18500Y-14000D02*
X18600Y-14100D01*
X19400Y-10400D02*
X18700Y-10400D01*
X18700Y-10400D02*
X18300Y-10800D01*
X18300Y-10800D02*
X18300Y-12200D01*
X18300Y-12200D02*
X18000Y-12500D01*
X18000Y-12500D02*
X18000Y-13500D01*
X18000Y-13500D02*
X18500Y-14000D01*
X19400Y-10400D02*
X20000Y-11000D01*
X21000Y-14100D02*
X21300Y-14400D01*
X18600Y-14100D02*
X21000Y-14100D01*
X23200Y-17500D02*
X23000Y-17300D01*
G54D32*
X27750Y-10752D02*
X29750Y-10752D01*
X26500Y-11500D02*
X27100Y-10900D01*
X27748Y-10750D02*
X27750Y-10752D01*
X27100Y-10900D02*
X27500Y-10900D01*
X27500Y-10900D02*
X27748Y-10750D01*
X25091Y-10752D02*
X25127Y-10752D01*
X25875Y-11500D02*
X26500Y-11500D01*
X25127Y-10752D02*
X25875Y-11500D01*
G54D31*
X19375Y-16500D02*
X19375Y-16575D01*
X20554Y-17400D02*
X20886Y-17067D01*
X20200Y-17400D02*
X20554Y-17400D01*
X19375Y-16575D02*
X20200Y-17400D01*
X19500Y-16000D02*
X19500Y-16375D01*
X19500Y-16375D02*
X19375Y-16500D01*
X19500Y-18000D02*
X20399Y-18000D01*
X20399Y-18000D02*
X21109Y-17290D01*
X19500Y-18000D02*
X19500Y-17625D01*
X19500Y-17625D02*
X19375Y-17500D01*
X27300Y-17300D02*
X26100Y-17300D01*
X26100Y-17300D02*
X24800Y-18600D01*
X24800Y-18600D02*
X24418Y-18600D01*
X24418Y-18600D02*
X24002Y-18184D01*
X27300Y-17300D02*
X27500Y-17500D01*
X27250Y-19250D02*
X26900Y-19250D01*
X27300Y-17300D02*
X26600Y-17300D01*
X27500Y-17500D02*
X27300Y-17300D01*
X27500Y-19000D02*
X27500Y-17500D01*
X27250Y-19250D02*
X27500Y-19000D01*
X17375Y-15500D02*
X17375Y-14500D01*
X17375Y-14500D02*
X17375Y-13933D01*
X17375Y-13933D02*
X17433Y-13875D01*
X20600Y-14500D02*
X20900Y-14800D01*
X24670Y-17516D02*
X24200Y-17046D01*
X17775Y-13875D02*
X17433Y-13875D01*
X20400Y-14500D02*
X20600Y-14500D01*
X18400Y-14500D02*
X20400Y-14500D01*
X17775Y-13875D02*
X18400Y-14500D01*
X24200Y-16800D02*
X24200Y-17046D01*
X17375Y-19000D02*
X17375Y-18000D01*
X17375Y-18000D02*
X17375Y-17433D01*
X17375Y-17433D02*
X17433Y-17375D01*
X20400Y-14900D02*
X18400Y-14900D01*
X24438Y-17738D02*
X23800Y-17100D01*
X23800Y-17100D02*
X23500Y-17100D01*
X20400Y-15000D02*
X20400Y-14900D01*
X24448Y-17738D02*
X24438Y-17738D01*
X17625Y-17275D02*
X17433Y-17375D01*
X18000Y-16900D02*
X17625Y-17275D01*
X18000Y-15300D02*
X18000Y-16900D01*
X18400Y-14900D02*
X18000Y-15300D01*
G54D32*
X16625Y-15500D02*
X14000Y-15500D01*
X14000Y-15500D02*
X13500Y-16000D01*
X16625Y-19000D02*
X14500Y-19000D01*
X14500Y-19000D02*
X13500Y-18000D01*
G54D33*
X17500Y-11625D02*
X17500Y-12200D01*
X17500Y-11625D02*
X17375Y-11625D01*
X29100Y-19250D02*
X29875Y-19250D01*
X29875Y-19250D02*
X30250Y-18875D01*
X30250Y-18875D02*
X30875Y-18875D01*
X30875Y-18875D02*
X31000Y-19000D01*
X20375Y-19000D02*
X20375Y-19125D01*
X20250Y-19000D02*
X19750Y-19000D01*
X20375Y-19125D02*
X20250Y-19000D01*
X16625Y-18000D02*
X16000Y-18000D01*
X16625Y-14500D02*
X16000Y-14500D01*
X23909Y-10752D02*
X23909Y-10891D01*
X23300Y-11500D02*
X23700Y-11100D01*
X23300Y-11500D02*
X22500Y-11500D01*
X23909Y-10891D02*
X23700Y-11100D01*
X23000Y-11625D02*
X22625Y-11625D01*
X22625Y-11625D02*
X22500Y-11500D01*
X24875Y-13250D02*
X22350Y-13250D01*
X21900Y-12100D02*
X22500Y-11500D01*
X21900Y-12800D02*
X21900Y-12100D01*
X22350Y-13250D02*
X21900Y-12800D01*
G54D31*
X24875Y-13250D02*
X24875Y-13325D01*
X24300Y-14096D02*
X23770Y-14626D01*
X24300Y-13900D02*
X24300Y-14096D01*
X24875Y-13325D02*
X24300Y-13900D01*
X22250Y-16400D02*
X22250Y-16595D01*
X22250Y-16595D02*
X21331Y-17513D01*
X22250Y-17000D02*
X22250Y-16400D01*
X22250Y-16400D02*
X22250Y-16146D01*
X22250Y-16146D02*
X23770Y-14626D01*
X21791Y-17958D02*
X22250Y-17500D01*
X22250Y-17500D02*
X22250Y-17000D01*
X21777Y-17958D02*
X21791Y-17958D01*
X20375Y-19000D02*
X20375Y-18470D01*
X20375Y-18470D02*
X21331Y-17513D01*
G54D32*
X33500Y-14000D02*
X33250Y-14000D01*
X31498Y-12248D02*
X29750Y-12248D01*
X33250Y-14000D02*
X31498Y-12248D01*
G54D10*
G36*
X17675Y-13467D02*
X17580Y-13467D01*
X17186Y-13467D01*
X17094Y-13505D01*
X17024Y-13575D01*
X17014Y-13600D01*
X17014Y-13292D01*
X16976Y-13201D01*
X16905Y-13130D01*
X16813Y-13092D01*
X16714Y-13092D01*
X16320Y-13092D01*
X16228Y-13130D01*
X16158Y-13200D01*
X16120Y-13292D01*
X16119Y-13392D01*
X16119Y-13707D01*
X16157Y-13798D01*
X16228Y-13869D01*
X16320Y-13907D01*
X16419Y-13907D01*
X16813Y-13907D01*
X16905Y-13869D01*
X16975Y-13799D01*
X16985Y-13774D01*
X16985Y-14057D01*
X16941Y-14013D01*
X16849Y-13975D01*
X16750Y-13974D01*
X16400Y-13974D01*
X16308Y-14012D01*
X16238Y-14083D01*
X16218Y-14130D01*
X16084Y-14075D01*
X15915Y-14074D01*
X15759Y-14139D01*
X15639Y-14258D01*
X15575Y-14415D01*
X15574Y-14584D01*
X15639Y-14740D01*
X15758Y-14860D01*
X15915Y-14924D01*
X16084Y-14925D01*
X16218Y-14869D01*
X16237Y-14916D01*
X16308Y-14986D01*
X16339Y-14999D01*
X16308Y-15012D01*
X16238Y-15083D01*
X16231Y-15100D01*
X14000Y-15100D01*
X13959Y-15108D01*
X13959Y-15108D01*
X13699Y-15000D01*
X13698Y-15000D01*
X14065Y-14848D01*
X14347Y-14567D01*
X14499Y-14199D01*
X14500Y-13815D01*
X16265Y-12050D01*
X16324Y-12050D01*
X16394Y-12021D01*
X16502Y-11999D01*
X16528Y-11994D01*
X16528Y-11994D01*
X16657Y-11907D01*
X16974Y-11590D01*
X16974Y-11849D01*
X17012Y-11941D01*
X17083Y-12011D01*
X17112Y-12024D01*
X17075Y-12115D01*
X17074Y-12284D01*
X17139Y-12440D01*
X17258Y-12560D01*
X17415Y-12624D01*
X17584Y-12625D01*
X17675Y-12587D01*
X17675Y-13467D01*
X17675Y-13467D01*
G37*
G54D34*
X17675Y-13467D02*
X17580Y-13467D01*
X17186Y-13467D01*
X17094Y-13505D01*
X17024Y-13575D01*
X17014Y-13600D01*
X17014Y-13292D01*
X16976Y-13201D01*
X16905Y-13130D01*
X16813Y-13092D01*
X16714Y-13092D01*
X16320Y-13092D01*
X16228Y-13130D01*
X16158Y-13200D01*
X16120Y-13292D01*
X16119Y-13392D01*
X16119Y-13707D01*
X16157Y-13798D01*
X16228Y-13869D01*
X16320Y-13907D01*
X16419Y-13907D01*
X16813Y-13907D01*
X16905Y-13869D01*
X16975Y-13799D01*
X16985Y-13774D01*
X16985Y-14057D01*
X16941Y-14013D01*
X16849Y-13975D01*
X16750Y-13974D01*
X16400Y-13974D01*
X16308Y-14012D01*
X16238Y-14083D01*
X16218Y-14130D01*
X16084Y-14075D01*
X15915Y-14074D01*
X15759Y-14139D01*
X15639Y-14258D01*
X15575Y-14415D01*
X15574Y-14584D01*
X15639Y-14740D01*
X15758Y-14860D01*
X15915Y-14924D01*
X16084Y-14925D01*
X16218Y-14869D01*
X16237Y-14916D01*
X16308Y-14986D01*
X16339Y-14999D01*
X16308Y-15012D01*
X16238Y-15083D01*
X16231Y-15100D01*
X14000Y-15100D01*
X13959Y-15108D01*
X13959Y-15108D01*
X13699Y-15000D01*
X13698Y-15000D01*
X14065Y-14848D01*
X14347Y-14567D01*
X14499Y-14199D01*
X14500Y-13815D01*
X16265Y-12050D01*
X16324Y-12050D01*
X16394Y-12021D01*
X16502Y-11999D01*
X16528Y-11994D01*
X16528Y-11994D01*
X16657Y-11907D01*
X16974Y-11590D01*
X16974Y-11849D01*
X17012Y-11941D01*
X17083Y-12011D01*
X17112Y-12024D01*
X17075Y-12115D01*
X17074Y-12284D01*
X17139Y-12440D01*
X17258Y-12560D01*
X17415Y-12624D01*
X17584Y-12625D01*
X17675Y-12587D01*
X17675Y-13467D01*
G54D10*
G36*
X17675Y-16765D02*
X17472Y-16967D01*
X17186Y-16967D01*
X17094Y-17005D01*
X17024Y-17075D01*
X17014Y-17100D01*
X17014Y-16792D01*
X16976Y-16701D01*
X16905Y-16630D01*
X16813Y-16592D01*
X16714Y-16592D01*
X16320Y-16592D01*
X16228Y-16630D01*
X16158Y-16700D01*
X16120Y-16792D01*
X16119Y-16892D01*
X16119Y-17207D01*
X16157Y-17298D01*
X16228Y-17369D01*
X16320Y-17407D01*
X16419Y-17407D01*
X16813Y-17407D01*
X16905Y-17369D01*
X16975Y-17299D01*
X16985Y-17274D01*
X16985Y-17557D01*
X16941Y-17513D01*
X16849Y-17475D01*
X16750Y-17474D01*
X16400Y-17474D01*
X16308Y-17512D01*
X16238Y-17583D01*
X16218Y-17630D01*
X16084Y-17575D01*
X15915Y-17574D01*
X15759Y-17639D01*
X15639Y-17758D01*
X15575Y-17915D01*
X15574Y-18084D01*
X15639Y-18240D01*
X15758Y-18360D01*
X15915Y-18424D01*
X16084Y-18425D01*
X16218Y-18369D01*
X16237Y-18416D01*
X16308Y-18486D01*
X16339Y-18499D01*
X16308Y-18512D01*
X16238Y-18583D01*
X16231Y-18600D01*
X14665Y-18600D01*
X14431Y-18365D01*
X14499Y-18199D01*
X14500Y-17801D01*
X14348Y-17434D01*
X14067Y-17152D01*
X13699Y-17000D01*
X13698Y-17000D01*
X14065Y-16848D01*
X14347Y-16567D01*
X14499Y-16199D01*
X14500Y-15900D01*
X16231Y-15900D01*
X16237Y-15916D01*
X16308Y-15986D01*
X16400Y-16024D01*
X16499Y-16025D01*
X16849Y-16025D01*
X16941Y-15987D01*
X17000Y-15928D01*
X17058Y-15986D01*
X17150Y-16024D01*
X17249Y-16025D01*
X17599Y-16025D01*
X17675Y-15993D01*
X17675Y-16765D01*
X17675Y-16765D01*
G37*
G54D34*
X17675Y-16765D02*
X17472Y-16967D01*
X17186Y-16967D01*
X17094Y-17005D01*
X17024Y-17075D01*
X17014Y-17100D01*
X17014Y-16792D01*
X16976Y-16701D01*
X16905Y-16630D01*
X16813Y-16592D01*
X16714Y-16592D01*
X16320Y-16592D01*
X16228Y-16630D01*
X16158Y-16700D01*
X16120Y-16792D01*
X16119Y-16892D01*
X16119Y-17207D01*
X16157Y-17298D01*
X16228Y-17369D01*
X16320Y-17407D01*
X16419Y-17407D01*
X16813Y-17407D01*
X16905Y-17369D01*
X16975Y-17299D01*
X16985Y-17274D01*
X16985Y-17557D01*
X16941Y-17513D01*
X16849Y-17475D01*
X16750Y-17474D01*
X16400Y-17474D01*
X16308Y-17512D01*
X16238Y-17583D01*
X16218Y-17630D01*
X16084Y-17575D01*
X15915Y-17574D01*
X15759Y-17639D01*
X15639Y-17758D01*
X15575Y-17915D01*
X15574Y-18084D01*
X15639Y-18240D01*
X15758Y-18360D01*
X15915Y-18424D01*
X16084Y-18425D01*
X16218Y-18369D01*
X16237Y-18416D01*
X16308Y-18486D01*
X16339Y-18499D01*
X16308Y-18512D01*
X16238Y-18583D01*
X16231Y-18600D01*
X14665Y-18600D01*
X14431Y-18365D01*
X14499Y-18199D01*
X14500Y-17801D01*
X14348Y-17434D01*
X14067Y-17152D01*
X13699Y-17000D01*
X13698Y-17000D01*
X14065Y-16848D01*
X14347Y-16567D01*
X14499Y-16199D01*
X14500Y-15900D01*
X16231Y-15900D01*
X16237Y-15916D01*
X16308Y-15986D01*
X16400Y-16024D01*
X16499Y-16025D01*
X16849Y-16025D01*
X16941Y-15987D01*
X17000Y-15928D01*
X17058Y-15986D01*
X17150Y-16024D01*
X17249Y-16025D01*
X17599Y-16025D01*
X17675Y-15993D01*
X17675Y-16765D01*
G54D10*
G36*
X19769Y-11499D02*
X19688Y-11533D01*
X19534Y-11688D01*
X19500Y-11769D01*
X19466Y-11688D01*
X19311Y-11534D01*
X19109Y-11450D01*
X18891Y-11449D01*
X18688Y-11533D01*
X18625Y-11597D01*
X18625Y-10934D01*
X18834Y-10725D01*
X19265Y-10725D01*
X19450Y-10909D01*
X19449Y-11108D01*
X19533Y-11311D01*
X19688Y-11465D01*
X19769Y-11499D01*
X19769Y-11499D01*
G37*
G54D34*
X19769Y-11499D02*
X19688Y-11533D01*
X19534Y-11688D01*
X19500Y-11769D01*
X19466Y-11688D01*
X19311Y-11534D01*
X19109Y-11450D01*
X18891Y-11449D01*
X18688Y-11533D01*
X18625Y-11597D01*
X18625Y-10934D01*
X18834Y-10725D01*
X19265Y-10725D01*
X19450Y-10909D01*
X19449Y-11108D01*
X19533Y-11311D01*
X19688Y-11465D01*
X19769Y-11499D01*
G54D10*
G36*
X23451Y-17825D02*
X23450Y-17826D01*
X23441Y-17846D01*
X23422Y-17854D01*
X23351Y-17925D01*
X23226Y-18050D01*
X23218Y-18069D01*
X23200Y-18076D01*
X23129Y-18147D01*
X23004Y-18272D01*
X23002Y-18278D01*
X22998Y-18269D01*
X22928Y-18199D01*
X22803Y-18074D01*
X22783Y-18066D01*
X22775Y-18047D01*
X22705Y-17976D01*
X22580Y-17851D01*
X22488Y-17813D01*
X22396Y-17813D01*
X22479Y-17729D01*
X22550Y-17624D01*
X22550Y-17624D01*
X22575Y-17500D01*
X22575Y-17384D01*
X22639Y-17540D01*
X22758Y-17660D01*
X22915Y-17724D01*
X22965Y-17724D01*
X22970Y-17729D01*
X22970Y-17729D01*
X23075Y-17800D01*
X23075Y-17800D01*
X23200Y-17825D01*
X23451Y-17825D01*
X23451Y-17825D01*
G37*
G54D34*
X23451Y-17825D02*
X23450Y-17826D01*
X23441Y-17846D01*
X23422Y-17854D01*
X23351Y-17925D01*
X23226Y-18050D01*
X23218Y-18069D01*
X23200Y-18076D01*
X23129Y-18147D01*
X23004Y-18272D01*
X23002Y-18278D01*
X22998Y-18269D01*
X22928Y-18199D01*
X22803Y-18074D01*
X22783Y-18066D01*
X22775Y-18047D01*
X22705Y-17976D01*
X22580Y-17851D01*
X22488Y-17813D01*
X22396Y-17813D01*
X22479Y-17729D01*
X22550Y-17624D01*
X22550Y-17624D01*
X22575Y-17500D01*
X22575Y-17384D01*
X22639Y-17540D01*
X22758Y-17660D01*
X22915Y-17724D01*
X22965Y-17724D01*
X22970Y-17729D01*
X22970Y-17729D01*
X23075Y-17800D01*
X23075Y-17800D01*
X23200Y-17825D01*
X23451Y-17825D01*
G54D10*
G36*
X23584Y-10269D02*
X23559Y-10295D01*
X23521Y-10387D01*
X23520Y-10486D01*
X23520Y-10784D01*
X23452Y-10852D01*
X23452Y-10852D01*
X23452Y-10852D01*
X23155Y-11150D01*
X23075Y-11150D01*
X23075Y-11125D01*
X23037Y-11033D01*
X22966Y-10963D01*
X22874Y-10925D01*
X22775Y-10924D01*
X22125Y-10924D01*
X22033Y-10962D01*
X21963Y-11033D01*
X21925Y-11125D01*
X21924Y-11224D01*
X21924Y-11580D01*
X21652Y-11852D01*
X21576Y-11966D01*
X21550Y-12100D01*
X21550Y-12490D01*
X20829Y-11770D01*
X20724Y-11699D01*
X20600Y-11675D01*
X20452Y-11675D01*
X20311Y-11534D01*
X20230Y-11500D01*
X20311Y-11466D01*
X20465Y-11311D01*
X20549Y-11109D01*
X20550Y-10891D01*
X20466Y-10688D01*
X20311Y-10534D01*
X20109Y-10450D01*
X19909Y-10449D01*
X19729Y-10269D01*
X23584Y-10269D01*
X23584Y-10269D01*
G37*
G54D34*
X23584Y-10269D02*
X23559Y-10295D01*
X23521Y-10387D01*
X23520Y-10486D01*
X23520Y-10784D01*
X23452Y-10852D01*
X23452Y-10852D01*
X23452Y-10852D01*
X23155Y-11150D01*
X23075Y-11150D01*
X23075Y-11125D01*
X23037Y-11033D01*
X22966Y-10963D01*
X22874Y-10925D01*
X22775Y-10924D01*
X22125Y-10924D01*
X22033Y-10962D01*
X21963Y-11033D01*
X21925Y-11125D01*
X21924Y-11224D01*
X21924Y-11580D01*
X21652Y-11852D01*
X21576Y-11966D01*
X21550Y-12100D01*
X21550Y-12490D01*
X20829Y-11770D01*
X20724Y-11699D01*
X20600Y-11675D01*
X20452Y-11675D01*
X20311Y-11534D01*
X20230Y-11500D01*
X20311Y-11466D01*
X20465Y-11311D01*
X20549Y-11109D01*
X20550Y-10891D01*
X20466Y-10688D01*
X20311Y-10534D01*
X20109Y-10450D01*
X19909Y-10449D01*
X19729Y-10269D01*
X23584Y-10269D01*
G54D10*
G36*
X24758Y-16518D02*
X24688Y-16588D01*
X24606Y-16670D01*
X24560Y-16559D01*
X24441Y-16439D01*
X24284Y-16375D01*
X24115Y-16374D01*
X23959Y-16439D01*
X23839Y-16558D01*
X23775Y-16715D01*
X23775Y-16773D01*
X23741Y-16739D01*
X23584Y-16675D01*
X23415Y-16674D01*
X23259Y-16739D01*
X23139Y-16858D01*
X23126Y-16892D01*
X23084Y-16875D01*
X22915Y-16874D01*
X22759Y-16939D01*
X22639Y-17058D01*
X22575Y-17215D01*
X22575Y-17299D01*
X22575Y-17000D01*
X22575Y-16595D01*
X22575Y-16400D01*
X22575Y-16281D01*
X23545Y-15311D01*
X23639Y-15405D01*
X23656Y-15412D01*
X23663Y-15428D01*
X23733Y-15499D01*
X23858Y-15624D01*
X23950Y-15662D01*
X24050Y-15662D01*
X24085Y-15647D01*
X24070Y-15682D01*
X24070Y-15782D01*
X24108Y-15874D01*
X24179Y-15944D01*
X24304Y-16069D01*
X24326Y-16078D01*
X24335Y-16100D01*
X24405Y-16170D01*
X24530Y-16296D01*
X24547Y-16303D01*
X24554Y-16319D01*
X24624Y-16390D01*
X24749Y-16515D01*
X24758Y-16518D01*
X24758Y-16518D01*
G37*
G54D34*
X24758Y-16518D02*
X24688Y-16588D01*
X24606Y-16670D01*
X24560Y-16559D01*
X24441Y-16439D01*
X24284Y-16375D01*
X24115Y-16374D01*
X23959Y-16439D01*
X23839Y-16558D01*
X23775Y-16715D01*
X23775Y-16773D01*
X23741Y-16739D01*
X23584Y-16675D01*
X23415Y-16674D01*
X23259Y-16739D01*
X23139Y-16858D01*
X23126Y-16892D01*
X23084Y-16875D01*
X22915Y-16874D01*
X22759Y-16939D01*
X22639Y-17058D01*
X22575Y-17215D01*
X22575Y-17299D01*
X22575Y-17000D01*
X22575Y-16595D01*
X22575Y-16400D01*
X22575Y-16281D01*
X23545Y-15311D01*
X23639Y-15405D01*
X23656Y-15412D01*
X23663Y-15428D01*
X23733Y-15499D01*
X23858Y-15624D01*
X23950Y-15662D01*
X24050Y-15662D01*
X24085Y-15647D01*
X24070Y-15682D01*
X24070Y-15782D01*
X24108Y-15874D01*
X24179Y-15944D01*
X24304Y-16069D01*
X24326Y-16078D01*
X24335Y-16100D01*
X24405Y-16170D01*
X24530Y-16296D01*
X24547Y-16303D01*
X24554Y-16319D01*
X24624Y-16390D01*
X24749Y-16515D01*
X24758Y-16518D01*
G54D10*
G36*
X35230Y-19730D02*
X12500Y-19730D01*
X12000Y-19730D01*
X11769Y-19730D01*
X11769Y-10269D01*
X18370Y-10269D01*
X18070Y-10570D01*
X18021Y-10642D01*
X17987Y-10558D01*
X17916Y-10488D01*
X17824Y-10450D01*
X17725Y-10449D01*
X17175Y-10449D01*
X17105Y-10478D01*
X16971Y-10505D01*
X16928Y-10534D01*
X16842Y-10592D01*
X16234Y-11199D01*
X16225Y-11199D01*
X15675Y-11199D01*
X15583Y-11237D01*
X15513Y-11308D01*
X15475Y-11400D01*
X15474Y-11499D01*
X15474Y-11709D01*
X14042Y-13142D01*
X13699Y-13000D01*
X13301Y-12999D01*
X12934Y-13151D01*
X12652Y-13432D01*
X12500Y-13800D01*
X12499Y-14198D01*
X12651Y-14565D01*
X12932Y-14847D01*
X13300Y-14999D01*
X13301Y-14999D01*
X12934Y-15151D01*
X12652Y-15432D01*
X12500Y-15800D01*
X12499Y-16198D01*
X12651Y-16565D01*
X12932Y-16847D01*
X13300Y-16999D01*
X13301Y-16999D01*
X12934Y-17151D01*
X12652Y-17432D01*
X12500Y-17800D01*
X12499Y-18198D01*
X12651Y-18565D01*
X12932Y-18847D01*
X13300Y-18999D01*
X13698Y-19000D01*
X13865Y-18931D01*
X14217Y-19282D01*
X14217Y-19282D01*
X14303Y-19340D01*
X14346Y-19369D01*
X14346Y-19369D01*
X14500Y-19400D01*
X16231Y-19400D01*
X16237Y-19416D01*
X16308Y-19486D01*
X16400Y-19524D01*
X16499Y-19525D01*
X16849Y-19525D01*
X16941Y-19487D01*
X17000Y-19428D01*
X17058Y-19486D01*
X17150Y-19524D01*
X17249Y-19525D01*
X17599Y-19525D01*
X17691Y-19487D01*
X17761Y-19416D01*
X17799Y-19324D01*
X17800Y-19225D01*
X17800Y-18675D01*
X17762Y-18583D01*
X17700Y-18521D01*
X17700Y-18478D01*
X17761Y-18416D01*
X17799Y-18324D01*
X17800Y-18225D01*
X17800Y-17715D01*
X17841Y-17674D01*
X17879Y-17582D01*
X17880Y-17482D01*
X17880Y-17479D01*
X18229Y-17129D01*
X18229Y-17129D01*
X18229Y-17129D01*
X18300Y-17024D01*
X18300Y-17024D01*
X18325Y-16900D01*
X18325Y-15434D01*
X18534Y-15225D01*
X20033Y-15225D01*
X20039Y-15240D01*
X20158Y-15360D01*
X20315Y-15424D01*
X20484Y-15425D01*
X20521Y-15409D01*
X20458Y-15472D01*
X20333Y-15598D01*
X20294Y-15689D01*
X20294Y-15789D01*
X20332Y-15881D01*
X20403Y-15951D01*
X20959Y-16508D01*
X20968Y-16511D01*
X20960Y-16514D01*
X20890Y-16585D01*
X20400Y-17075D01*
X20334Y-17075D01*
X19800Y-16540D01*
X19800Y-16499D01*
X19800Y-16499D01*
X19800Y-16499D01*
X19812Y-16436D01*
X19949Y-16300D01*
X20029Y-16105D01*
X20030Y-15895D01*
X19949Y-15700D01*
X19800Y-15550D01*
X19605Y-15470D01*
X19395Y-15469D01*
X19200Y-15550D01*
X19050Y-15699D01*
X18970Y-15894D01*
X18969Y-16104D01*
X18974Y-16116D01*
X18950Y-16175D01*
X18949Y-16274D01*
X18949Y-16824D01*
X18987Y-16916D01*
X19058Y-16986D01*
X19089Y-16999D01*
X19058Y-17012D01*
X18988Y-17083D01*
X18950Y-17175D01*
X18949Y-17274D01*
X18949Y-17824D01*
X18974Y-17883D01*
X18970Y-17894D01*
X18969Y-18104D01*
X19050Y-18299D01*
X19199Y-18449D01*
X19394Y-18529D01*
X19604Y-18530D01*
X19799Y-18449D01*
X19924Y-18325D01*
X20088Y-18325D01*
X20074Y-18345D01*
X20050Y-18470D01*
X20050Y-18521D01*
X19988Y-18583D01*
X19968Y-18630D01*
X19834Y-18575D01*
X19665Y-18574D01*
X19509Y-18639D01*
X19389Y-18758D01*
X19325Y-18915D01*
X19324Y-19084D01*
X19389Y-19240D01*
X19508Y-19360D01*
X19665Y-19424D01*
X19834Y-19425D01*
X19968Y-19369D01*
X19987Y-19416D01*
X20058Y-19486D01*
X20150Y-19524D01*
X20249Y-19525D01*
X20599Y-19525D01*
X20691Y-19487D01*
X20761Y-19416D01*
X20799Y-19324D01*
X20800Y-19225D01*
X20800Y-18675D01*
X20762Y-18583D01*
X20741Y-18563D01*
X21191Y-18113D01*
X21186Y-18124D01*
X21186Y-18223D01*
X21224Y-18315D01*
X21294Y-18386D01*
X21419Y-18511D01*
X21511Y-18549D01*
X21611Y-18549D01*
X21646Y-18535D01*
X21632Y-18569D01*
X21632Y-18669D01*
X21670Y-18761D01*
X21740Y-18831D01*
X21865Y-18956D01*
X21884Y-18964D01*
X21892Y-18984D01*
X21963Y-19054D01*
X22088Y-19179D01*
X22180Y-19217D01*
X22279Y-19217D01*
X22371Y-19179D01*
X22441Y-19109D01*
X22998Y-18553D01*
X23000Y-18547D01*
X23004Y-18555D01*
X23074Y-18625D01*
X23631Y-19182D01*
X23663Y-19196D01*
X23897Y-19429D01*
X24003Y-19500D01*
X24003Y-19500D01*
X24127Y-19525D01*
X25200Y-19525D01*
X25324Y-19500D01*
X25324Y-19500D01*
X25429Y-19429D01*
X25784Y-19075D01*
X26150Y-19075D01*
X26250Y-19075D01*
X26400Y-19075D01*
X26400Y-19075D01*
X26399Y-19174D01*
X26399Y-19424D01*
X26437Y-19516D01*
X26508Y-19586D01*
X26600Y-19624D01*
X26699Y-19625D01*
X27199Y-19625D01*
X27291Y-19587D01*
X27316Y-19561D01*
X27374Y-19550D01*
X27374Y-19550D01*
X27479Y-19479D01*
X27729Y-19229D01*
X27729Y-19229D01*
X27729Y-19229D01*
X27800Y-19124D01*
X27800Y-19124D01*
X27825Y-19000D01*
X27825Y-18262D01*
X27870Y-18329D01*
X28020Y-18479D01*
X28020Y-18479D01*
X28520Y-18979D01*
X28520Y-18979D01*
X28583Y-19022D01*
X28613Y-19042D01*
X28600Y-19075D01*
X28599Y-19174D01*
X28599Y-19424D01*
X28637Y-19516D01*
X28708Y-19586D01*
X28800Y-19624D01*
X28899Y-19625D01*
X29399Y-19625D01*
X29460Y-19600D01*
X29875Y-19600D01*
X30008Y-19573D01*
X30008Y-19573D01*
X30122Y-19497D01*
X30319Y-19300D01*
X30574Y-19300D01*
X30662Y-19263D01*
X30758Y-19360D01*
X30915Y-19424D01*
X31084Y-19425D01*
X31240Y-19360D01*
X31360Y-19241D01*
X31424Y-19084D01*
X31425Y-18915D01*
X31360Y-18759D01*
X31241Y-18639D01*
X31084Y-18575D01*
X31043Y-18575D01*
X31043Y-18575D01*
X31008Y-18551D01*
X30875Y-18525D01*
X30703Y-18525D01*
X30666Y-18488D01*
X30574Y-18450D01*
X30475Y-18449D01*
X29925Y-18449D01*
X29833Y-18487D01*
X29763Y-18558D01*
X29725Y-18650D01*
X29724Y-18749D01*
X29724Y-18900D01*
X29599Y-18900D01*
X29600Y-18825D01*
X29600Y-18575D01*
X29568Y-18499D01*
X29599Y-18424D01*
X29600Y-18325D01*
X29600Y-18075D01*
X29562Y-17983D01*
X29491Y-17913D01*
X29399Y-17875D01*
X29300Y-17874D01*
X28834Y-17874D01*
X28825Y-17865D01*
X28825Y-17634D01*
X29229Y-17229D01*
X29229Y-17229D01*
X29229Y-17229D01*
X29272Y-17166D01*
X29300Y-17124D01*
X29300Y-17124D01*
X29325Y-17000D01*
X29325Y-16933D01*
X29377Y-16933D01*
X29377Y-16933D01*
X29426Y-16965D01*
X29469Y-16994D01*
X29469Y-16994D01*
X29623Y-17025D01*
X29864Y-17025D01*
X29925Y-17049D01*
X30024Y-17050D01*
X30574Y-17050D01*
X30666Y-17012D01*
X30736Y-16941D01*
X30774Y-16849D01*
X30775Y-16750D01*
X30775Y-16400D01*
X30737Y-16308D01*
X30703Y-16275D01*
X31209Y-16275D01*
X32568Y-17634D01*
X32500Y-17800D01*
X32499Y-18198D01*
X32651Y-18565D01*
X32932Y-18847D01*
X33300Y-18999D01*
X33698Y-19000D01*
X34065Y-18848D01*
X34347Y-18567D01*
X34499Y-18199D01*
X34500Y-17801D01*
X34348Y-17434D01*
X34067Y-17152D01*
X33699Y-17000D01*
X33698Y-17000D01*
X34065Y-16848D01*
X34347Y-16567D01*
X34499Y-16199D01*
X34500Y-15801D01*
X34348Y-15434D01*
X34067Y-15152D01*
X33699Y-15000D01*
X33698Y-15000D01*
X34065Y-14848D01*
X34347Y-14567D01*
X34499Y-14199D01*
X34500Y-13801D01*
X34348Y-13434D01*
X34067Y-13152D01*
X33699Y-13000D01*
X33301Y-12999D01*
X32957Y-13142D01*
X31780Y-11965D01*
X31651Y-11878D01*
X31625Y-11873D01*
X31498Y-11848D01*
X30418Y-11848D01*
X30395Y-11791D01*
X30324Y-11721D01*
X30232Y-11683D01*
X30133Y-11682D01*
X29267Y-11682D01*
X29175Y-11720D01*
X29105Y-11791D01*
X29067Y-11883D01*
X29066Y-11982D01*
X29066Y-12612D01*
X29104Y-12704D01*
X29175Y-12774D01*
X29267Y-12812D01*
X29366Y-12813D01*
X30232Y-12813D01*
X30324Y-12775D01*
X30394Y-12704D01*
X30418Y-12648D01*
X31332Y-12648D01*
X32500Y-13815D01*
X32499Y-14198D01*
X32651Y-14565D01*
X32932Y-14847D01*
X33300Y-14999D01*
X33301Y-14999D01*
X33134Y-15068D01*
X32407Y-14342D01*
X32278Y-14255D01*
X32252Y-14250D01*
X32125Y-14225D01*
X30703Y-14225D01*
X30736Y-14191D01*
X30774Y-14099D01*
X30775Y-14000D01*
X30775Y-13650D01*
X30737Y-13558D01*
X30666Y-13488D01*
X30574Y-13450D01*
X30475Y-13449D01*
X29925Y-13449D01*
X29864Y-13475D01*
X29623Y-13475D01*
X29469Y-13505D01*
X29426Y-13534D01*
X29377Y-13566D01*
X28883Y-13566D01*
X28791Y-13604D01*
X28721Y-13675D01*
X28683Y-13767D01*
X28682Y-13866D01*
X28682Y-14457D01*
X28270Y-14870D01*
X28199Y-14975D01*
X28175Y-15100D01*
X28175Y-16865D01*
X27870Y-17170D01*
X27799Y-17275D01*
X27784Y-17352D01*
X27729Y-17270D01*
X27729Y-17270D01*
X27529Y-17070D01*
X27424Y-16999D01*
X27300Y-16975D01*
X26953Y-16975D01*
X27011Y-16916D01*
X27049Y-16824D01*
X27050Y-16725D01*
X27050Y-16175D01*
X27012Y-16083D01*
X26950Y-16021D01*
X26950Y-15870D01*
X26991Y-15828D01*
X27079Y-15615D01*
X27080Y-15385D01*
X26991Y-15171D01*
X26828Y-15008D01*
X26615Y-14920D01*
X26385Y-14919D01*
X26171Y-15008D01*
X26008Y-15171D01*
X25920Y-15384D01*
X25919Y-15614D01*
X26008Y-15828D01*
X26171Y-15991D01*
X26283Y-16038D01*
X26249Y-16071D01*
X26191Y-16013D01*
X26099Y-15975D01*
X26000Y-15974D01*
X25809Y-15974D01*
X25678Y-15843D01*
X25697Y-15796D01*
X25698Y-15697D01*
X25660Y-15605D01*
X25589Y-15535D01*
X25464Y-15409D01*
X25447Y-15402D01*
X25440Y-15386D01*
X25370Y-15315D01*
X25245Y-15190D01*
X25223Y-15181D01*
X25214Y-15160D01*
X25144Y-15089D01*
X25019Y-14964D01*
X24927Y-14926D01*
X24827Y-14926D01*
X24816Y-14930D01*
X24972Y-14775D01*
X25099Y-14775D01*
X25191Y-14737D01*
X25261Y-14666D01*
X25299Y-14574D01*
X25300Y-14475D01*
X25300Y-13925D01*
X25262Y-13833D01*
X25191Y-13763D01*
X25160Y-13750D01*
X25191Y-13737D01*
X25261Y-13666D01*
X25299Y-13574D01*
X25300Y-13475D01*
X25300Y-12925D01*
X25262Y-12833D01*
X25191Y-12763D01*
X25099Y-12725D01*
X25000Y-12724D01*
X24650Y-12724D01*
X24558Y-12762D01*
X24488Y-12833D01*
X24460Y-12900D01*
X22494Y-12900D01*
X22250Y-12655D01*
X22250Y-12244D01*
X22419Y-12075D01*
X22874Y-12075D01*
X22935Y-12050D01*
X23324Y-12050D01*
X23416Y-12012D01*
X23486Y-11941D01*
X23524Y-11849D01*
X23525Y-11762D01*
X23547Y-11747D01*
X23947Y-11347D01*
X23947Y-11347D01*
X23947Y-11347D01*
X23977Y-11317D01*
X24096Y-11317D01*
X24188Y-11279D01*
X24258Y-11208D01*
X24296Y-11116D01*
X24297Y-11017D01*
X24297Y-10387D01*
X24259Y-10295D01*
X24233Y-10269D01*
X24766Y-10269D01*
X24741Y-10295D01*
X24703Y-10387D01*
X24702Y-10486D01*
X24702Y-10691D01*
X24691Y-10752D01*
X24702Y-10812D01*
X24702Y-11116D01*
X24740Y-11208D01*
X24811Y-11278D01*
X24903Y-11316D01*
X25002Y-11317D01*
X25126Y-11317D01*
X25474Y-11665D01*
X25474Y-11849D01*
X25512Y-11941D01*
X25583Y-12011D01*
X25675Y-12049D01*
X25774Y-12050D01*
X26065Y-12050D01*
X26125Y-12074D01*
X26224Y-12075D01*
X26874Y-12075D01*
X26966Y-12037D01*
X27036Y-11966D01*
X27074Y-11874D01*
X27075Y-11775D01*
X27075Y-11490D01*
X27254Y-11311D01*
X27267Y-11316D01*
X27366Y-11317D01*
X28232Y-11317D01*
X28324Y-11279D01*
X28394Y-11208D01*
X28418Y-11152D01*
X29081Y-11152D01*
X29104Y-11208D01*
X29175Y-11278D01*
X29267Y-11316D01*
X29366Y-11317D01*
X30232Y-11317D01*
X30324Y-11279D01*
X30394Y-11208D01*
X30432Y-11116D01*
X30433Y-11017D01*
X30433Y-10387D01*
X30395Y-10295D01*
X30369Y-10269D01*
X34500Y-10269D01*
X35230Y-10269D01*
X35230Y-19730D01*
X35230Y-19730D01*
G37*
G54D34*
X35230Y-19730D02*
X12500Y-19730D01*
X12000Y-19730D01*
X11769Y-19730D01*
X11769Y-10269D01*
X18370Y-10269D01*
X18070Y-10570D01*
X18021Y-10642D01*
X17987Y-10558D01*
X17916Y-10488D01*
X17824Y-10450D01*
X17725Y-10449D01*
X17175Y-10449D01*
X17105Y-10478D01*
X16971Y-10505D01*
X16928Y-10534D01*
X16842Y-10592D01*
X16234Y-11199D01*
X16225Y-11199D01*
X15675Y-11199D01*
X15583Y-11237D01*
X15513Y-11308D01*
X15475Y-11400D01*
X15474Y-11499D01*
X15474Y-11709D01*
X14042Y-13142D01*
X13699Y-13000D01*
X13301Y-12999D01*
X12934Y-13151D01*
X12652Y-13432D01*
X12500Y-13800D01*
X12499Y-14198D01*
X12651Y-14565D01*
X12932Y-14847D01*
X13300Y-14999D01*
X13301Y-14999D01*
X12934Y-15151D01*
X12652Y-15432D01*
X12500Y-15800D01*
X12499Y-16198D01*
X12651Y-16565D01*
X12932Y-16847D01*
X13300Y-16999D01*
X13301Y-16999D01*
X12934Y-17151D01*
X12652Y-17432D01*
X12500Y-17800D01*
X12499Y-18198D01*
X12651Y-18565D01*
X12932Y-18847D01*
X13300Y-18999D01*
X13698Y-19000D01*
X13865Y-18931D01*
X14217Y-19282D01*
X14217Y-19282D01*
X14303Y-19340D01*
X14346Y-19369D01*
X14346Y-19369D01*
X14500Y-19400D01*
X16231Y-19400D01*
X16237Y-19416D01*
X16308Y-19486D01*
X16400Y-19524D01*
X16499Y-19525D01*
X16849Y-19525D01*
X16941Y-19487D01*
X17000Y-19428D01*
X17058Y-19486D01*
X17150Y-19524D01*
X17249Y-19525D01*
X17599Y-19525D01*
X17691Y-19487D01*
X17761Y-19416D01*
X17799Y-19324D01*
X17800Y-19225D01*
X17800Y-18675D01*
X17762Y-18583D01*
X17700Y-18521D01*
X17700Y-18478D01*
X17761Y-18416D01*
X17799Y-18324D01*
X17800Y-18225D01*
X17800Y-17715D01*
X17841Y-17674D01*
X17879Y-17582D01*
X17880Y-17482D01*
X17880Y-17479D01*
X18229Y-17129D01*
X18229Y-17129D01*
X18229Y-17129D01*
X18300Y-17024D01*
X18300Y-17024D01*
X18325Y-16900D01*
X18325Y-15434D01*
X18534Y-15225D01*
X20033Y-15225D01*
X20039Y-15240D01*
X20158Y-15360D01*
X20315Y-15424D01*
X20484Y-15425D01*
X20521Y-15409D01*
X20458Y-15472D01*
X20333Y-15598D01*
X20294Y-15689D01*
X20294Y-15789D01*
X20332Y-15881D01*
X20403Y-15951D01*
X20959Y-16508D01*
X20968Y-16511D01*
X20960Y-16514D01*
X20890Y-16585D01*
X20400Y-17075D01*
X20334Y-17075D01*
X19800Y-16540D01*
X19800Y-16499D01*
X19800Y-16499D01*
X19800Y-16499D01*
X19812Y-16436D01*
X19949Y-16300D01*
X20029Y-16105D01*
X20030Y-15895D01*
X19949Y-15700D01*
X19800Y-15550D01*
X19605Y-15470D01*
X19395Y-15469D01*
X19200Y-15550D01*
X19050Y-15699D01*
X18970Y-15894D01*
X18969Y-16104D01*
X18974Y-16116D01*
X18950Y-16175D01*
X18949Y-16274D01*
X18949Y-16824D01*
X18987Y-16916D01*
X19058Y-16986D01*
X19089Y-16999D01*
X19058Y-17012D01*
X18988Y-17083D01*
X18950Y-17175D01*
X18949Y-17274D01*
X18949Y-17824D01*
X18974Y-17883D01*
X18970Y-17894D01*
X18969Y-18104D01*
X19050Y-18299D01*
X19199Y-18449D01*
X19394Y-18529D01*
X19604Y-18530D01*
X19799Y-18449D01*
X19924Y-18325D01*
X20088Y-18325D01*
X20074Y-18345D01*
X20050Y-18470D01*
X20050Y-18521D01*
X19988Y-18583D01*
X19968Y-18630D01*
X19834Y-18575D01*
X19665Y-18574D01*
X19509Y-18639D01*
X19389Y-18758D01*
X19325Y-18915D01*
X19324Y-19084D01*
X19389Y-19240D01*
X19508Y-19360D01*
X19665Y-19424D01*
X19834Y-19425D01*
X19968Y-19369D01*
X19987Y-19416D01*
X20058Y-19486D01*
X20150Y-19524D01*
X20249Y-19525D01*
X20599Y-19525D01*
X20691Y-19487D01*
X20761Y-19416D01*
X20799Y-19324D01*
X20800Y-19225D01*
X20800Y-18675D01*
X20762Y-18583D01*
X20741Y-18563D01*
X21191Y-18113D01*
X21186Y-18124D01*
X21186Y-18223D01*
X21224Y-18315D01*
X21294Y-18386D01*
X21419Y-18511D01*
X21511Y-18549D01*
X21611Y-18549D01*
X21646Y-18535D01*
X21632Y-18569D01*
X21632Y-18669D01*
X21670Y-18761D01*
X21740Y-18831D01*
X21865Y-18956D01*
X21884Y-18964D01*
X21892Y-18984D01*
X21963Y-19054D01*
X22088Y-19179D01*
X22180Y-19217D01*
X22279Y-19217D01*
X22371Y-19179D01*
X22441Y-19109D01*
X22998Y-18553D01*
X23000Y-18547D01*
X23004Y-18555D01*
X23074Y-18625D01*
X23631Y-19182D01*
X23663Y-19196D01*
X23897Y-19429D01*
X24003Y-19500D01*
X24003Y-19500D01*
X24127Y-19525D01*
X25200Y-19525D01*
X25324Y-19500D01*
X25324Y-19500D01*
X25429Y-19429D01*
X25784Y-19075D01*
X26150Y-19075D01*
X26250Y-19075D01*
X26400Y-19075D01*
X26400Y-19075D01*
X26399Y-19174D01*
X26399Y-19424D01*
X26437Y-19516D01*
X26508Y-19586D01*
X26600Y-19624D01*
X26699Y-19625D01*
X27199Y-19625D01*
X27291Y-19587D01*
X27316Y-19561D01*
X27374Y-19550D01*
X27374Y-19550D01*
X27479Y-19479D01*
X27729Y-19229D01*
X27729Y-19229D01*
X27729Y-19229D01*
X27800Y-19124D01*
X27800Y-19124D01*
X27825Y-19000D01*
X27825Y-18262D01*
X27870Y-18329D01*
X28020Y-18479D01*
X28020Y-18479D01*
X28520Y-18979D01*
X28520Y-18979D01*
X28583Y-19022D01*
X28613Y-19042D01*
X28600Y-19075D01*
X28599Y-19174D01*
X28599Y-19424D01*
X28637Y-19516D01*
X28708Y-19586D01*
X28800Y-19624D01*
X28899Y-19625D01*
X29399Y-19625D01*
X29460Y-19600D01*
X29875Y-19600D01*
X30008Y-19573D01*
X30008Y-19573D01*
X30122Y-19497D01*
X30319Y-19300D01*
X30574Y-19300D01*
X30662Y-19263D01*
X30758Y-19360D01*
X30915Y-19424D01*
X31084Y-19425D01*
X31240Y-19360D01*
X31360Y-19241D01*
X31424Y-19084D01*
X31425Y-18915D01*
X31360Y-18759D01*
X31241Y-18639D01*
X31084Y-18575D01*
X31043Y-18575D01*
X31043Y-18575D01*
X31008Y-18551D01*
X30875Y-18525D01*
X30703Y-18525D01*
X30666Y-18488D01*
X30574Y-18450D01*
X30475Y-18449D01*
X29925Y-18449D01*
X29833Y-18487D01*
X29763Y-18558D01*
X29725Y-18650D01*
X29724Y-18749D01*
X29724Y-18900D01*
X29599Y-18900D01*
X29600Y-18825D01*
X29600Y-18575D01*
X29568Y-18499D01*
X29599Y-18424D01*
X29600Y-18325D01*
X29600Y-18075D01*
X29562Y-17983D01*
X29491Y-17913D01*
X29399Y-17875D01*
X29300Y-17874D01*
X28834Y-17874D01*
X28825Y-17865D01*
X28825Y-17634D01*
X29229Y-17229D01*
X29229Y-17229D01*
X29229Y-17229D01*
X29272Y-17166D01*
X29300Y-17124D01*
X29300Y-17124D01*
X29325Y-17000D01*
X29325Y-16933D01*
X29377Y-16933D01*
X29377Y-16933D01*
X29426Y-16965D01*
X29469Y-16994D01*
X29469Y-16994D01*
X29623Y-17025D01*
X29864Y-17025D01*
X29925Y-17049D01*
X30024Y-17050D01*
X30574Y-17050D01*
X30666Y-17012D01*
X30736Y-16941D01*
X30774Y-16849D01*
X30775Y-16750D01*
X30775Y-16400D01*
X30737Y-16308D01*
X30703Y-16275D01*
X31209Y-16275D01*
X32568Y-17634D01*
X32500Y-17800D01*
X32499Y-18198D01*
X32651Y-18565D01*
X32932Y-18847D01*
X33300Y-18999D01*
X33698Y-19000D01*
X34065Y-18848D01*
X34347Y-18567D01*
X34499Y-18199D01*
X34500Y-17801D01*
X34348Y-17434D01*
X34067Y-17152D01*
X33699Y-17000D01*
X33698Y-17000D01*
X34065Y-16848D01*
X34347Y-16567D01*
X34499Y-16199D01*
X34500Y-15801D01*
X34348Y-15434D01*
X34067Y-15152D01*
X33699Y-15000D01*
X33698Y-15000D01*
X34065Y-14848D01*
X34347Y-14567D01*
X34499Y-14199D01*
X34500Y-13801D01*
X34348Y-13434D01*
X34067Y-13152D01*
X33699Y-13000D01*
X33301Y-12999D01*
X32957Y-13142D01*
X31780Y-11965D01*
X31651Y-11878D01*
X31625Y-11873D01*
X31498Y-11848D01*
X30418Y-11848D01*
X30395Y-11791D01*
X30324Y-11721D01*
X30232Y-11683D01*
X30133Y-11682D01*
X29267Y-11682D01*
X29175Y-11720D01*
X29105Y-11791D01*
X29067Y-11883D01*
X29066Y-11982D01*
X29066Y-12612D01*
X29104Y-12704D01*
X29175Y-12774D01*
X29267Y-12812D01*
X29366Y-12813D01*
X30232Y-12813D01*
X30324Y-12775D01*
X30394Y-12704D01*
X30418Y-12648D01*
X31332Y-12648D01*
X32500Y-13815D01*
X32499Y-14198D01*
X32651Y-14565D01*
X32932Y-14847D01*
X33300Y-14999D01*
X33301Y-14999D01*
X33134Y-15068D01*
X32407Y-14342D01*
X32278Y-14255D01*
X32252Y-14250D01*
X32125Y-14225D01*
X30703Y-14225D01*
X30736Y-14191D01*
X30774Y-14099D01*
X30775Y-14000D01*
X30775Y-13650D01*
X30737Y-13558D01*
X30666Y-13488D01*
X30574Y-13450D01*
X30475Y-13449D01*
X29925Y-13449D01*
X29864Y-13475D01*
X29623Y-13475D01*
X29469Y-13505D01*
X29426Y-13534D01*
X29377Y-13566D01*
X28883Y-13566D01*
X28791Y-13604D01*
X28721Y-13675D01*
X28683Y-13767D01*
X28682Y-13866D01*
X28682Y-14457D01*
X28270Y-14870D01*
X28199Y-14975D01*
X28175Y-15100D01*
X28175Y-16865D01*
X27870Y-17170D01*
X27799Y-17275D01*
X27784Y-17352D01*
X27729Y-17270D01*
X27729Y-17270D01*
X27529Y-17070D01*
X27424Y-16999D01*
X27300Y-16975D01*
X26953Y-16975D01*
X27011Y-16916D01*
X27049Y-16824D01*
X27050Y-16725D01*
X27050Y-16175D01*
X27012Y-16083D01*
X26950Y-16021D01*
X26950Y-15870D01*
X26991Y-15828D01*
X27079Y-15615D01*
X27080Y-15385D01*
X26991Y-15171D01*
X26828Y-15008D01*
X26615Y-14920D01*
X26385Y-14919D01*
X26171Y-15008D01*
X26008Y-15171D01*
X25920Y-15384D01*
X25919Y-15614D01*
X26008Y-15828D01*
X26171Y-15991D01*
X26283Y-16038D01*
X26249Y-16071D01*
X26191Y-16013D01*
X26099Y-15975D01*
X26000Y-15974D01*
X25809Y-15974D01*
X25678Y-15843D01*
X25697Y-15796D01*
X25698Y-15697D01*
X25660Y-15605D01*
X25589Y-15535D01*
X25464Y-15409D01*
X25447Y-15402D01*
X25440Y-15386D01*
X25370Y-15315D01*
X25245Y-15190D01*
X25223Y-15181D01*
X25214Y-15160D01*
X25144Y-15089D01*
X25019Y-14964D01*
X24927Y-14926D01*
X24827Y-14926D01*
X24816Y-14930D01*
X24972Y-14775D01*
X25099Y-14775D01*
X25191Y-14737D01*
X25261Y-14666D01*
X25299Y-14574D01*
X25300Y-14475D01*
X25300Y-13925D01*
X25262Y-13833D01*
X25191Y-13763D01*
X25160Y-13750D01*
X25191Y-13737D01*
X25261Y-13666D01*
X25299Y-13574D01*
X25300Y-13475D01*
X25300Y-12925D01*
X25262Y-12833D01*
X25191Y-12763D01*
X25099Y-12725D01*
X25000Y-12724D01*
X24650Y-12724D01*
X24558Y-12762D01*
X24488Y-12833D01*
X24460Y-12900D01*
X22494Y-12900D01*
X22250Y-12655D01*
X22250Y-12244D01*
X22419Y-12075D01*
X22874Y-12075D01*
X22935Y-12050D01*
X23324Y-12050D01*
X23416Y-12012D01*
X23486Y-11941D01*
X23524Y-11849D01*
X23525Y-11762D01*
X23547Y-11747D01*
X23947Y-11347D01*
X23947Y-11347D01*
X23947Y-11347D01*
X23977Y-11317D01*
X24096Y-11317D01*
X24188Y-11279D01*
X24258Y-11208D01*
X24296Y-11116D01*
X24297Y-11017D01*
X24297Y-10387D01*
X24259Y-10295D01*
X24233Y-10269D01*
X24766Y-10269D01*
X24741Y-10295D01*
X24703Y-10387D01*
X24702Y-10486D01*
X24702Y-10691D01*
X24691Y-10752D01*
X24702Y-10812D01*
X24702Y-11116D01*
X24740Y-11208D01*
X24811Y-11278D01*
X24903Y-11316D01*
X25002Y-11317D01*
X25126Y-11317D01*
X25474Y-11665D01*
X25474Y-11849D01*
X25512Y-11941D01*
X25583Y-12011D01*
X25675Y-12049D01*
X25774Y-12050D01*
X26065Y-12050D01*
X26125Y-12074D01*
X26224Y-12075D01*
X26874Y-12075D01*
X26966Y-12037D01*
X27036Y-11966D01*
X27074Y-11874D01*
X27075Y-11775D01*
X27075Y-11490D01*
X27254Y-11311D01*
X27267Y-11316D01*
X27366Y-11317D01*
X28232Y-11317D01*
X28324Y-11279D01*
X28394Y-11208D01*
X28418Y-11152D01*
X29081Y-11152D01*
X29104Y-11208D01*
X29175Y-11278D01*
X29267Y-11316D01*
X29366Y-11317D01*
X30232Y-11317D01*
X30324Y-11279D01*
X30394Y-11208D01*
X30432Y-11116D01*
X30433Y-11017D01*
X30433Y-10387D01*
X30395Y-10295D01*
X30369Y-10269D01*
X34500Y-10269D01*
X35230Y-10269D01*
X35230Y-19730D01*
M02*
