G04 (created by PCBNEW (2013-07-07 BZR 4022)-stable) date 28.7.2014 13:59:47*
%MOIN*%
G04 Gerber Fmt 3.4, Leading zero omitted, Abs format*
%FSLAX34Y34*%
G01*
G70*
G90*
G04 APERTURE LIST*
%ADD10C,0.00590551*%
%ADD11C,0.00787402*%
%ADD12C,0.011811*%
G04 APERTURE END LIST*
G54D10*
G54D11*
X11500Y-10000D02*
X11500Y-10500D01*
X12000Y-10000D02*
X11500Y-10000D01*
X35500Y-10000D02*
X35000Y-10000D01*
X35500Y-10500D02*
X35500Y-10000D01*
X35500Y-20000D02*
X35500Y-19500D01*
X35000Y-20000D02*
X35500Y-20000D01*
X11500Y-20000D02*
X12500Y-20000D01*
X11500Y-19500D02*
X11500Y-20000D01*
G54D12*
X11653Y-22989D02*
X11653Y-22398D01*
X11906Y-22454D02*
X11935Y-22426D01*
X11991Y-22398D01*
X12131Y-22398D01*
X12188Y-22426D01*
X12216Y-22454D01*
X12244Y-22510D01*
X12244Y-22567D01*
X12216Y-22651D01*
X11878Y-22989D01*
X12244Y-22989D01*
X12834Y-22932D02*
X12806Y-22960D01*
X12722Y-22989D01*
X12666Y-22989D01*
X12581Y-22960D01*
X12525Y-22904D01*
X12497Y-22848D01*
X12469Y-22735D01*
X12469Y-22651D01*
X12497Y-22539D01*
X12525Y-22482D01*
X12581Y-22426D01*
X12666Y-22398D01*
X12722Y-22398D01*
X12806Y-22426D01*
X12834Y-22454D01*
X13341Y-22595D02*
X13341Y-22989D01*
X13200Y-22370D02*
X13059Y-22792D01*
X13425Y-22792D01*
X13734Y-22651D02*
X13678Y-22623D01*
X13650Y-22595D01*
X13622Y-22539D01*
X13622Y-22510D01*
X13650Y-22454D01*
X13678Y-22426D01*
X13734Y-22398D01*
X13847Y-22398D01*
X13903Y-22426D01*
X13931Y-22454D01*
X13959Y-22510D01*
X13959Y-22539D01*
X13931Y-22595D01*
X13903Y-22623D01*
X13847Y-22651D01*
X13734Y-22651D01*
X13678Y-22679D01*
X13650Y-22707D01*
X13622Y-22764D01*
X13622Y-22876D01*
X13650Y-22932D01*
X13678Y-22960D01*
X13734Y-22989D01*
X13847Y-22989D01*
X13903Y-22960D01*
X13931Y-22932D01*
X13959Y-22876D01*
X13959Y-22764D01*
X13931Y-22707D01*
X13903Y-22679D01*
X13847Y-22651D01*
X14494Y-22398D02*
X14212Y-22398D01*
X14184Y-22679D01*
X14212Y-22651D01*
X14269Y-22623D01*
X14409Y-22623D01*
X14465Y-22651D01*
X14494Y-22679D01*
X14522Y-22735D01*
X14522Y-22876D01*
X14494Y-22932D01*
X14465Y-22960D01*
X14409Y-22989D01*
X14269Y-22989D01*
X14212Y-22960D01*
X14184Y-22932D01*
X15140Y-22398D02*
X15478Y-22398D01*
X15309Y-22989D02*
X15309Y-22398D01*
X15787Y-22398D02*
X15900Y-22398D01*
X15956Y-22426D01*
X16012Y-22482D01*
X16040Y-22595D01*
X16040Y-22792D01*
X16012Y-22904D01*
X15956Y-22960D01*
X15900Y-22989D01*
X15787Y-22989D01*
X15731Y-22960D01*
X15675Y-22904D01*
X15647Y-22792D01*
X15647Y-22595D01*
X15675Y-22482D01*
X15731Y-22426D01*
X15787Y-22398D01*
X16293Y-22989D02*
X16293Y-22398D01*
X16518Y-22398D01*
X16575Y-22426D01*
X16603Y-22454D01*
X16631Y-22510D01*
X16631Y-22595D01*
X16603Y-22651D01*
X16575Y-22679D01*
X16518Y-22707D01*
X16293Y-22707D01*
X17306Y-22960D02*
X17390Y-22989D01*
X17531Y-22989D01*
X17587Y-22960D01*
X17615Y-22932D01*
X17643Y-22876D01*
X17643Y-22820D01*
X17615Y-22764D01*
X17587Y-22735D01*
X17531Y-22707D01*
X17418Y-22679D01*
X17362Y-22651D01*
X17334Y-22623D01*
X17306Y-22567D01*
X17306Y-22510D01*
X17334Y-22454D01*
X17362Y-22426D01*
X17418Y-22398D01*
X17559Y-22398D01*
X17643Y-22426D01*
X17896Y-22989D02*
X17896Y-22398D01*
X18459Y-22989D02*
X18178Y-22989D01*
X18178Y-22398D01*
X18656Y-22989D02*
X18656Y-22398D01*
X18993Y-22989D02*
X18740Y-22651D01*
X18993Y-22398D02*
X18656Y-22735D01*
X19668Y-22960D02*
X19752Y-22989D01*
X19893Y-22989D01*
X19949Y-22960D01*
X19977Y-22932D01*
X20005Y-22876D01*
X20005Y-22820D01*
X19977Y-22764D01*
X19949Y-22735D01*
X19893Y-22707D01*
X19780Y-22679D01*
X19724Y-22651D01*
X19696Y-22623D01*
X19668Y-22567D01*
X19668Y-22510D01*
X19696Y-22454D01*
X19724Y-22426D01*
X19780Y-22398D01*
X19921Y-22398D01*
X20005Y-22426D01*
X20596Y-22932D02*
X20568Y-22960D01*
X20483Y-22989D01*
X20427Y-22989D01*
X20343Y-22960D01*
X20287Y-22904D01*
X20258Y-22848D01*
X20230Y-22735D01*
X20230Y-22651D01*
X20258Y-22539D01*
X20287Y-22482D01*
X20343Y-22426D01*
X20427Y-22398D01*
X20483Y-22398D01*
X20568Y-22426D01*
X20596Y-22454D01*
X21187Y-22989D02*
X20990Y-22707D01*
X20849Y-22989D02*
X20849Y-22398D01*
X21074Y-22398D01*
X21130Y-22426D01*
X21158Y-22454D01*
X21187Y-22510D01*
X21187Y-22595D01*
X21158Y-22651D01*
X21130Y-22679D01*
X21074Y-22707D01*
X20849Y-22707D01*
X21440Y-22679D02*
X21636Y-22679D01*
X21721Y-22989D02*
X21440Y-22989D01*
X21440Y-22398D01*
X21721Y-22398D01*
X21974Y-22679D02*
X22171Y-22679D01*
X22255Y-22989D02*
X21974Y-22989D01*
X21974Y-22398D01*
X22255Y-22398D01*
X22508Y-22989D02*
X22508Y-22398D01*
X22846Y-22989D01*
X22846Y-22398D01*
X15537Y-18210D02*
X15612Y-18239D01*
X15762Y-18239D01*
X15837Y-18210D01*
X15875Y-18154D01*
X15875Y-18126D01*
X15837Y-18070D01*
X15762Y-18042D01*
X15650Y-18042D01*
X15575Y-18014D01*
X15537Y-17957D01*
X15537Y-17929D01*
X15575Y-17873D01*
X15650Y-17845D01*
X15762Y-17845D01*
X15837Y-17873D01*
X16549Y-18210D02*
X16474Y-18239D01*
X16324Y-18239D01*
X16250Y-18210D01*
X16212Y-18182D01*
X16175Y-18126D01*
X16175Y-17957D01*
X16212Y-17901D01*
X16250Y-17873D01*
X16324Y-17845D01*
X16474Y-17845D01*
X16549Y-17873D01*
X16999Y-18239D02*
X16924Y-18210D01*
X16887Y-18154D01*
X16887Y-17648D01*
X15618Y-16210D02*
X15693Y-16239D01*
X15843Y-16239D01*
X15918Y-16210D01*
X15956Y-16154D01*
X15956Y-16126D01*
X15918Y-16070D01*
X15843Y-16042D01*
X15731Y-16042D01*
X15656Y-16014D01*
X15618Y-15957D01*
X15618Y-15929D01*
X15656Y-15873D01*
X15731Y-15845D01*
X15843Y-15845D01*
X15918Y-15873D01*
X16631Y-16239D02*
X16631Y-15648D01*
X16631Y-16210D02*
X16556Y-16239D01*
X16406Y-16239D01*
X16331Y-16210D01*
X16293Y-16182D01*
X16256Y-16126D01*
X16256Y-15957D01*
X16293Y-15901D01*
X16331Y-15873D01*
X16406Y-15845D01*
X16556Y-15845D01*
X16631Y-15873D01*
X17343Y-16239D02*
X17343Y-15929D01*
X17306Y-15873D01*
X17231Y-15845D01*
X17081Y-15845D01*
X17006Y-15873D01*
X17343Y-16210D02*
X17268Y-16239D01*
X17081Y-16239D01*
X17006Y-16210D01*
X16968Y-16154D01*
X16968Y-16098D01*
X17006Y-16042D01*
X17081Y-16014D01*
X17268Y-16014D01*
X17343Y-15985D01*
X15625Y-13845D02*
X15812Y-14239D01*
X16000Y-13845D01*
X16412Y-14239D02*
X16337Y-14210D01*
X16300Y-14182D01*
X16262Y-14126D01*
X16262Y-13957D01*
X16300Y-13901D01*
X16337Y-13873D01*
X16412Y-13845D01*
X16525Y-13845D01*
X16600Y-13873D01*
X16637Y-13901D01*
X16675Y-13957D01*
X16675Y-14126D01*
X16637Y-14182D01*
X16600Y-14210D01*
X16525Y-14239D01*
X16412Y-14239D01*
X17349Y-13845D02*
X17349Y-14239D01*
X17012Y-13845D02*
X17012Y-14154D01*
X17049Y-14210D01*
X17124Y-14239D01*
X17237Y-14239D01*
X17312Y-14210D01*
X17349Y-14182D01*
X17612Y-13845D02*
X17912Y-13845D01*
X17724Y-13648D02*
X17724Y-14154D01*
X17762Y-14210D01*
X17837Y-14239D01*
X17912Y-14239D01*
X15956Y-11845D02*
X15956Y-12323D01*
X15918Y-12379D01*
X15881Y-12407D01*
X15806Y-12435D01*
X15693Y-12435D01*
X15618Y-12407D01*
X15956Y-12210D02*
X15881Y-12239D01*
X15731Y-12239D01*
X15656Y-12210D01*
X15618Y-12182D01*
X15581Y-12126D01*
X15581Y-11957D01*
X15618Y-11901D01*
X15656Y-11873D01*
X15731Y-11845D01*
X15881Y-11845D01*
X15956Y-11873D01*
X16331Y-11845D02*
X16331Y-12239D01*
X16331Y-11901D02*
X16368Y-11873D01*
X16443Y-11845D01*
X16556Y-11845D01*
X16631Y-11873D01*
X16668Y-11929D01*
X16668Y-12239D01*
X17381Y-12239D02*
X17381Y-11648D01*
X17381Y-12210D02*
X17306Y-12239D01*
X17156Y-12239D01*
X17081Y-12210D01*
X17043Y-12182D01*
X17006Y-12126D01*
X17006Y-11957D01*
X17043Y-11901D01*
X17081Y-11873D01*
X17156Y-11845D01*
X17306Y-11845D01*
X17381Y-11873D01*
X29900Y-11676D02*
X29825Y-11648D01*
X29712Y-11648D01*
X29600Y-11676D01*
X29525Y-11732D01*
X29487Y-11789D01*
X29450Y-11901D01*
X29450Y-11985D01*
X29487Y-12098D01*
X29525Y-12154D01*
X29600Y-12210D01*
X29712Y-12239D01*
X29787Y-12239D01*
X29900Y-12210D01*
X29937Y-12182D01*
X29937Y-11985D01*
X29787Y-11985D01*
X30275Y-12239D02*
X30275Y-11648D01*
X30724Y-12239D01*
X30724Y-11648D01*
X31099Y-12239D02*
X31099Y-11648D01*
X31287Y-11648D01*
X31399Y-11676D01*
X31474Y-11732D01*
X31512Y-11789D01*
X31549Y-11901D01*
X31549Y-11985D01*
X31512Y-12098D01*
X31474Y-12154D01*
X31399Y-12210D01*
X31287Y-12239D01*
X31099Y-12239D01*
X29887Y-13648D02*
X30150Y-14239D01*
X30412Y-13648D01*
X30675Y-14239D02*
X30675Y-13648D01*
X31049Y-14239D02*
X31049Y-13648D01*
X31499Y-14239D01*
X31499Y-13648D01*
X29256Y-15845D02*
X29256Y-16239D01*
X29068Y-15620D02*
X28881Y-16042D01*
X29368Y-16042D01*
X29781Y-15901D02*
X29706Y-15873D01*
X29668Y-15845D01*
X29631Y-15789D01*
X29631Y-15760D01*
X29668Y-15704D01*
X29706Y-15676D01*
X29781Y-15648D01*
X29931Y-15648D01*
X30006Y-15676D01*
X30043Y-15704D01*
X30081Y-15760D01*
X30081Y-15789D01*
X30043Y-15845D01*
X30006Y-15873D01*
X29931Y-15901D01*
X29781Y-15901D01*
X29706Y-15929D01*
X29668Y-15957D01*
X29631Y-16014D01*
X29631Y-16126D01*
X29668Y-16182D01*
X29706Y-16210D01*
X29781Y-16239D01*
X29931Y-16239D01*
X30006Y-16210D01*
X30043Y-16182D01*
X30081Y-16126D01*
X30081Y-16014D01*
X30043Y-15957D01*
X30006Y-15929D01*
X29931Y-15901D01*
X30793Y-15648D02*
X30418Y-15648D01*
X30381Y-15929D01*
X30418Y-15901D01*
X30493Y-15873D01*
X30681Y-15873D01*
X30756Y-15901D01*
X30793Y-15929D01*
X30831Y-15985D01*
X30831Y-16126D01*
X30793Y-16182D01*
X30756Y-16210D01*
X30681Y-16239D01*
X30493Y-16239D01*
X30418Y-16210D01*
X30381Y-16182D01*
X31431Y-15929D02*
X31543Y-15957D01*
X31581Y-15985D01*
X31618Y-16042D01*
X31618Y-16126D01*
X31581Y-16182D01*
X31543Y-16210D01*
X31468Y-16239D01*
X31168Y-16239D01*
X31168Y-15648D01*
X31431Y-15648D01*
X31506Y-15676D01*
X31543Y-15704D01*
X31581Y-15760D01*
X31581Y-15817D01*
X31543Y-15873D01*
X31506Y-15901D01*
X31431Y-15929D01*
X31168Y-15929D01*
X29312Y-17845D02*
X29312Y-18239D01*
X29125Y-17620D02*
X28937Y-18042D01*
X29425Y-18042D01*
X29837Y-17901D02*
X29762Y-17873D01*
X29725Y-17845D01*
X29687Y-17789D01*
X29687Y-17760D01*
X29725Y-17704D01*
X29762Y-17676D01*
X29837Y-17648D01*
X29987Y-17648D01*
X30062Y-17676D01*
X30100Y-17704D01*
X30137Y-17760D01*
X30137Y-17789D01*
X30100Y-17845D01*
X30062Y-17873D01*
X29987Y-17901D01*
X29837Y-17901D01*
X29762Y-17929D01*
X29725Y-17957D01*
X29687Y-18014D01*
X29687Y-18126D01*
X29725Y-18182D01*
X29762Y-18210D01*
X29837Y-18239D01*
X29987Y-18239D01*
X30062Y-18210D01*
X30100Y-18182D01*
X30137Y-18126D01*
X30137Y-18014D01*
X30100Y-17957D01*
X30062Y-17929D01*
X29987Y-17901D01*
X30849Y-17648D02*
X30474Y-17648D01*
X30437Y-17929D01*
X30474Y-17901D01*
X30549Y-17873D01*
X30737Y-17873D01*
X30812Y-17901D01*
X30849Y-17929D01*
X30887Y-17985D01*
X30887Y-18126D01*
X30849Y-18182D01*
X30812Y-18210D01*
X30737Y-18239D01*
X30549Y-18239D01*
X30474Y-18210D01*
X30437Y-18182D01*
X31187Y-18070D02*
X31562Y-18070D01*
X31112Y-18239D02*
X31374Y-17648D01*
X31637Y-18239D01*
M02*
