G04 (created by PCBNEW (2013-07-07 BZR 4022)-stable) date 30.7.2014 11:24:54*
%MOIN*%
G04 Gerber Fmt 3.4, Leading zero omitted, Abs format*
%FSLAX34Y34*%
G01*
G70*
G90*
G04 APERTURE LIST*
%ADD10C,0.00590551*%
%ADD11R,0.0394X0.0315*%
%ADD12R,0.05X0.025*%
%ADD13R,0.035X0.055*%
%ADD14R,0.055X0.035*%
%ADD15R,0.06X0.06*%
%ADD16C,0.06*%
%ADD17C,0.056*%
%ADD18R,0.065X0.065*%
%ADD19C,0.065*%
%ADD20R,0.063X0.0866*%
%ADD21R,0.0866X0.063*%
%ADD22R,0.0276X0.063*%
%ADD23R,0.0276X0.0827*%
%ADD24R,0.0787X0.1083*%
%ADD25C,0.15*%
%ADD26R,0.15X0.15*%
%ADD27C,0.066*%
G04 APERTURE END LIST*
G54D10*
G36*
X20670Y-17408D02*
X20545Y-17283D01*
X21102Y-16726D01*
X21227Y-16852D01*
X20670Y-17408D01*
X20670Y-17408D01*
G37*
G36*
X20893Y-17631D02*
X20768Y-17506D01*
X21324Y-16949D01*
X21450Y-17074D01*
X20893Y-17631D01*
X20893Y-17631D01*
G37*
G36*
X21116Y-17854D02*
X20991Y-17728D01*
X21547Y-17172D01*
X21672Y-17297D01*
X21116Y-17854D01*
X21116Y-17854D01*
G37*
G36*
X21339Y-18076D02*
X21213Y-17951D01*
X21770Y-17395D01*
X21895Y-17520D01*
X21339Y-18076D01*
X21339Y-18076D01*
G37*
G36*
X21561Y-18299D02*
X21436Y-18174D01*
X21993Y-17617D01*
X22118Y-17743D01*
X21561Y-18299D01*
X21561Y-18299D01*
G37*
G36*
X21784Y-18522D02*
X21659Y-18397D01*
X22215Y-17840D01*
X22340Y-17965D01*
X21784Y-18522D01*
X21784Y-18522D01*
G37*
G36*
X22007Y-18745D02*
X21882Y-18619D01*
X22438Y-18063D01*
X22563Y-18188D01*
X22007Y-18745D01*
X22007Y-18745D01*
G37*
G36*
X22229Y-18967D02*
X22104Y-18842D01*
X22661Y-18286D01*
X22786Y-18411D01*
X22229Y-18967D01*
X22229Y-18967D01*
G37*
G36*
X24891Y-16303D02*
X24766Y-16178D01*
X25322Y-15621D01*
X25448Y-15746D01*
X24891Y-16303D01*
X24891Y-16303D01*
G37*
G36*
X23328Y-14740D02*
X23203Y-14615D01*
X23760Y-14059D01*
X23885Y-14184D01*
X23328Y-14740D01*
X23328Y-14740D01*
G37*
G36*
X23555Y-14966D02*
X23429Y-14841D01*
X23986Y-14285D01*
X24111Y-14410D01*
X23555Y-14966D01*
X23555Y-14966D01*
G37*
G36*
X23781Y-15193D02*
X23656Y-15068D01*
X24212Y-14511D01*
X24337Y-14636D01*
X23781Y-15193D01*
X23781Y-15193D01*
G37*
G36*
X24000Y-15412D02*
X23875Y-15287D01*
X24431Y-14730D01*
X24557Y-14855D01*
X24000Y-15412D01*
X24000Y-15412D01*
G37*
G36*
X24226Y-15638D02*
X24101Y-15513D01*
X24658Y-14957D01*
X24783Y-15082D01*
X24226Y-15638D01*
X24226Y-15638D01*
G37*
G36*
X24446Y-15857D02*
X24320Y-15732D01*
X24877Y-15176D01*
X25002Y-15301D01*
X24446Y-15857D01*
X24446Y-15857D01*
G37*
G36*
X24672Y-16084D02*
X24547Y-15959D01*
X25103Y-15402D01*
X25228Y-15527D01*
X24672Y-16084D01*
X24672Y-16084D01*
G37*
G36*
X23772Y-18970D02*
X23216Y-18414D01*
X23341Y-18288D01*
X23898Y-18845D01*
X23772Y-18970D01*
X23772Y-18970D01*
G37*
G36*
X23994Y-18748D02*
X23438Y-18192D01*
X23563Y-18066D01*
X24120Y-18623D01*
X23994Y-18748D01*
X23994Y-18748D01*
G37*
G36*
X24218Y-18525D02*
X23661Y-17968D01*
X23787Y-17843D01*
X24343Y-18399D01*
X24218Y-18525D01*
X24218Y-18525D01*
G37*
G36*
X24440Y-18303D02*
X23883Y-17746D01*
X24009Y-17621D01*
X24565Y-18177D01*
X24440Y-18303D01*
X24440Y-18303D01*
G37*
G36*
X24663Y-18079D02*
X24107Y-17523D01*
X24232Y-17398D01*
X24788Y-17954D01*
X24663Y-18079D01*
X24663Y-18079D01*
G37*
G36*
X24885Y-17857D02*
X24329Y-17301D01*
X24454Y-17175D01*
X25011Y-17732D01*
X24885Y-17857D01*
X24885Y-17857D01*
G37*
G36*
X25109Y-17634D02*
X24552Y-17077D01*
X24677Y-16952D01*
X25234Y-17509D01*
X25109Y-17634D01*
X25109Y-17634D01*
G37*
G36*
X25331Y-17412D02*
X24774Y-16855D01*
X24899Y-16730D01*
X25456Y-17287D01*
X25331Y-17412D01*
X25331Y-17412D01*
G37*
G36*
X21101Y-16296D02*
X20544Y-15739D01*
X20670Y-15614D01*
X21226Y-16171D01*
X21101Y-16296D01*
X21101Y-16296D01*
G37*
G36*
X21320Y-16077D02*
X20764Y-15520D01*
X20889Y-15395D01*
X21445Y-15951D01*
X21320Y-16077D01*
X21320Y-16077D01*
G37*
G36*
X21546Y-15850D02*
X20990Y-15294D01*
X21115Y-15169D01*
X21672Y-15725D01*
X21546Y-15850D01*
X21546Y-15850D01*
G37*
G36*
X21766Y-15631D02*
X21209Y-15075D01*
X21334Y-14950D01*
X21891Y-15506D01*
X21766Y-15631D01*
X21766Y-15631D01*
G37*
G36*
X21985Y-15412D02*
X21428Y-14855D01*
X21553Y-14730D01*
X22110Y-15287D01*
X21985Y-15412D01*
X21985Y-15412D01*
G37*
G36*
X22211Y-15186D02*
X21655Y-14629D01*
X21780Y-14504D01*
X22336Y-15061D01*
X22211Y-15186D01*
X22211Y-15186D01*
G37*
G36*
X22437Y-14959D02*
X21881Y-14403D01*
X22006Y-14278D01*
X22563Y-14834D01*
X22437Y-14959D01*
X22437Y-14959D01*
G37*
G36*
X22664Y-14733D02*
X22107Y-14177D01*
X22232Y-14051D01*
X22789Y-14608D01*
X22664Y-14733D01*
X22664Y-14733D01*
G37*
G54D11*
X16567Y-13500D03*
X17433Y-13875D03*
X17433Y-13125D03*
X16567Y-17000D03*
X17433Y-17375D03*
X17433Y-16625D03*
G54D12*
X26900Y-19250D03*
X26900Y-18750D03*
X26900Y-18250D03*
X26900Y-17750D03*
X29100Y-17750D03*
X29100Y-18250D03*
X29100Y-18750D03*
X29100Y-19250D03*
G54D13*
X16625Y-18000D03*
X17375Y-18000D03*
G54D14*
X23000Y-11625D03*
X23000Y-12375D03*
X30250Y-18875D03*
X30250Y-18125D03*
G54D13*
X20375Y-19000D03*
X21125Y-19000D03*
X24875Y-13250D03*
X25625Y-13250D03*
X19375Y-16500D03*
X18625Y-16500D03*
X19375Y-17500D03*
X18625Y-17500D03*
X24875Y-14250D03*
X25625Y-14250D03*
G54D14*
X26000Y-11625D03*
X26000Y-12375D03*
G54D13*
X16625Y-14500D03*
X17375Y-14500D03*
G54D15*
X20000Y-13000D03*
G54D16*
X19000Y-13000D03*
X20000Y-12000D03*
X19000Y-12000D03*
X20000Y-11000D03*
X19000Y-11000D03*
G54D17*
X19500Y-16000D03*
X19500Y-18000D03*
G54D18*
X26500Y-11500D03*
G54D19*
X26500Y-12500D03*
G54D18*
X22500Y-11500D03*
G54D19*
X22500Y-12500D03*
G54D14*
X30250Y-13875D03*
X30250Y-14625D03*
X30250Y-16625D03*
X30250Y-15875D03*
G54D13*
X17375Y-19000D03*
X16625Y-19000D03*
X17375Y-15500D03*
X16625Y-15500D03*
G54D14*
X17500Y-10875D03*
X17500Y-11625D03*
X16000Y-11625D03*
X16000Y-10875D03*
G54D20*
X27752Y-16250D03*
X29248Y-16250D03*
X27752Y-14250D03*
X29248Y-14250D03*
G54D21*
X27750Y-12248D03*
X27750Y-10752D03*
X29750Y-12248D03*
X29750Y-10752D03*
G54D22*
X23909Y-10752D03*
G54D23*
X24500Y-10850D03*
G54D22*
X25091Y-10752D03*
G54D24*
X24500Y-11795D03*
G54D25*
X13500Y-14000D03*
X13500Y-16000D03*
G54D26*
X13500Y-12000D03*
G54D25*
X13500Y-18000D03*
X33500Y-14000D03*
X33500Y-16000D03*
G54D26*
X33500Y-12000D03*
G54D25*
X33500Y-18000D03*
G54D13*
X26625Y-16500D03*
X25875Y-16500D03*
G54D27*
X26500Y-15500D03*
X26500Y-14500D03*
M02*
