G04 (created by PCBNEW (2013-07-07 BZR 4022)-stable) date 30.7.2014 9:50:12*
%MOIN*%
G04 Gerber Fmt 3.4, Leading zero omitted, Abs format*
%FSLAX34Y34*%
G01*
G70*
G90*
G04 APERTURE LIST*
%ADD10C,0.00590551*%
%ADD11C,0.011811*%
%ADD12C,0.00393701*%
G04 APERTURE END LIST*
G54D10*
G54D11*
X11683Y-23989D02*
X11683Y-23398D01*
X11936Y-23454D02*
X11964Y-23426D01*
X12020Y-23398D01*
X12161Y-23398D01*
X12217Y-23426D01*
X12245Y-23454D01*
X12273Y-23510D01*
X12273Y-23567D01*
X12245Y-23651D01*
X11908Y-23989D01*
X12273Y-23989D01*
X12864Y-23932D02*
X12836Y-23960D01*
X12751Y-23989D01*
X12695Y-23989D01*
X12611Y-23960D01*
X12555Y-23904D01*
X12526Y-23848D01*
X12498Y-23735D01*
X12498Y-23651D01*
X12526Y-23539D01*
X12555Y-23482D01*
X12611Y-23426D01*
X12695Y-23398D01*
X12751Y-23398D01*
X12836Y-23426D01*
X12864Y-23454D01*
X13370Y-23595D02*
X13370Y-23989D01*
X13230Y-23370D02*
X13089Y-23792D01*
X13455Y-23792D01*
X13764Y-23651D02*
X13708Y-23623D01*
X13679Y-23595D01*
X13651Y-23539D01*
X13651Y-23510D01*
X13679Y-23454D01*
X13708Y-23426D01*
X13764Y-23398D01*
X13876Y-23398D01*
X13933Y-23426D01*
X13961Y-23454D01*
X13989Y-23510D01*
X13989Y-23539D01*
X13961Y-23595D01*
X13933Y-23623D01*
X13876Y-23651D01*
X13764Y-23651D01*
X13708Y-23679D01*
X13679Y-23707D01*
X13651Y-23764D01*
X13651Y-23876D01*
X13679Y-23932D01*
X13708Y-23960D01*
X13764Y-23989D01*
X13876Y-23989D01*
X13933Y-23960D01*
X13961Y-23932D01*
X13989Y-23876D01*
X13989Y-23764D01*
X13961Y-23707D01*
X13933Y-23679D01*
X13876Y-23651D01*
X14523Y-23398D02*
X14242Y-23398D01*
X14214Y-23679D01*
X14242Y-23651D01*
X14298Y-23623D01*
X14439Y-23623D01*
X14495Y-23651D01*
X14523Y-23679D01*
X14551Y-23735D01*
X14551Y-23876D01*
X14523Y-23932D01*
X14495Y-23960D01*
X14439Y-23989D01*
X14298Y-23989D01*
X14242Y-23960D01*
X14214Y-23932D01*
X15254Y-23989D02*
X15254Y-23398D01*
X15395Y-23398D01*
X15479Y-23426D01*
X15535Y-23482D01*
X15564Y-23539D01*
X15592Y-23651D01*
X15592Y-23735D01*
X15564Y-23848D01*
X15535Y-23904D01*
X15479Y-23960D01*
X15395Y-23989D01*
X15254Y-23989D01*
X15845Y-23989D02*
X15845Y-23398D01*
X16126Y-23989D02*
X16126Y-23398D01*
X16323Y-23820D01*
X16520Y-23398D01*
X16520Y-23989D01*
X16801Y-23679D02*
X16998Y-23679D01*
X17082Y-23989D02*
X16801Y-23989D01*
X16801Y-23398D01*
X17082Y-23398D01*
X17335Y-23989D02*
X17335Y-23398D01*
X17673Y-23989D01*
X17673Y-23398D01*
X17926Y-23960D02*
X18010Y-23989D01*
X18151Y-23989D01*
X18207Y-23960D01*
X18235Y-23932D01*
X18263Y-23876D01*
X18263Y-23820D01*
X18235Y-23764D01*
X18207Y-23735D01*
X18151Y-23707D01*
X18038Y-23679D01*
X17982Y-23651D01*
X17954Y-23623D01*
X17926Y-23567D01*
X17926Y-23510D01*
X17954Y-23454D01*
X17982Y-23426D01*
X18038Y-23398D01*
X18179Y-23398D01*
X18263Y-23426D01*
X18516Y-23989D02*
X18516Y-23398D01*
X18910Y-23398D02*
X19023Y-23398D01*
X19079Y-23426D01*
X19135Y-23482D01*
X19163Y-23595D01*
X19163Y-23792D01*
X19135Y-23904D01*
X19079Y-23960D01*
X19023Y-23989D01*
X18910Y-23989D01*
X18854Y-23960D01*
X18798Y-23904D01*
X18769Y-23792D01*
X18769Y-23595D01*
X18798Y-23482D01*
X18854Y-23426D01*
X18910Y-23398D01*
X19416Y-23989D02*
X19416Y-23398D01*
X19754Y-23989D01*
X19754Y-23398D01*
X20007Y-23960D02*
X20091Y-23989D01*
X20232Y-23989D01*
X20288Y-23960D01*
X20316Y-23932D01*
X20344Y-23876D01*
X20344Y-23820D01*
X20316Y-23764D01*
X20288Y-23735D01*
X20232Y-23707D01*
X20119Y-23679D01*
X20063Y-23651D01*
X20035Y-23623D01*
X20007Y-23567D01*
X20007Y-23510D01*
X20035Y-23454D01*
X20063Y-23426D01*
X20119Y-23398D01*
X20260Y-23398D01*
X20344Y-23426D01*
G54D12*
X11500Y-10000D02*
G75*
G03X11500Y-10000I0J0D01*
G74*
G01*
X11499Y-10000D02*
X11500Y-10000D01*
X11500Y-9999D02*
X11500Y-10000D01*
X12000Y-20000D02*
X12500Y-20000D01*
X34500Y-10000D02*
X35500Y-10000D01*
X12000Y-20000D02*
X11500Y-20000D01*
X11500Y-20000D02*
X11500Y-10000D01*
X35500Y-20000D02*
X12500Y-20000D01*
X35500Y-10000D02*
X35500Y-20000D01*
X11500Y-10000D02*
X34500Y-10000D01*
M02*
